<svg width="56" height="55" viewBox="0 0 56 55" fill="none" xmlns="http://www.w3.org/2000/svg">
<circle cx="27.9738" cy="27.2124" r="27.2124" fill="#FEFD00"/>
<path d="M27.611 23.2301C25.2183 23.2301 23.2656 25.1827 23.2656 27.5754C23.2656 29.9681 25.2183 31.9208 27.611 31.9208C30.0037 31.9208 31.9563 29.9681 31.9563 27.5754C31.9563 25.1827 30.0037 23.2301 27.611 23.2301ZM40.6437 27.5754C40.6437 25.776 40.66 23.9929 40.559 22.1967C40.4579 20.1104 39.982 18.2588 38.4564 16.7332C36.9275 15.2044 35.0792 14.7317 32.9929 14.6306C31.1935 14.5296 29.4104 14.5459 27.6142 14.5459C25.8148 14.5459 24.0317 14.5296 22.2355 14.6306C20.1492 14.7317 18.2977 15.2076 16.7721 16.7332C15.2432 18.2621 14.7705 20.1104 14.6695 22.1967C14.5684 23.9961 14.5847 25.7792 14.5847 27.5754C14.5847 29.3716 14.5684 31.158 14.6695 32.9541C14.7705 35.0404 15.2465 36.892 16.7721 38.4176C18.3009 39.9464 20.1492 40.4191 22.2355 40.5202C24.0349 40.6212 25.8181 40.6049 27.6142 40.6049C29.4137 40.6049 31.1968 40.6212 32.9929 40.5202C35.0792 40.4191 36.9308 39.9432 38.4564 38.4176C39.9853 36.8887 40.4579 35.0404 40.559 32.9541C40.6633 31.158 40.6437 29.3748 40.6437 27.5754V27.5754ZM27.611 34.2613C23.9111 34.2613 20.9251 31.2753 20.9251 27.5754C20.9251 23.8755 23.9111 20.8895 27.611 20.8895C31.3109 20.8895 34.2969 23.8755 34.2969 27.5754C34.2969 31.2753 31.3109 34.2613 27.611 34.2613ZM34.5707 22.1771C33.7068 22.1771 33.0092 21.4795 33.0092 20.6157C33.0092 19.7518 33.7068 19.0542 34.5707 19.0542C35.4345 19.0542 36.1322 19.7518 36.1322 20.6157C36.1324 20.8208 36.0922 21.024 36.0138 21.2135C35.9354 21.4031 35.8204 21.5753 35.6754 21.7204C35.5303 21.8654 35.3581 21.9804 35.1685 22.0588C34.979 22.1372 34.7758 22.1774 34.5707 22.1771V22.1771Z" fill="#1F1F1F"/>
</svg>
