<svg width="57" height="55" viewBox="0 0 57 55" fill="none" xmlns="http://www.w3.org/2000/svg">
  <ellipse cx="28.6445" cy="27.0938" rx="27.7711" ry="27.0938" fill="#FEFD00"/>
  <path
    d="M39.6513 15.4524L16.283 15.4524C15.721 15.4524 15.267 15.8686 15.267 16.3837L15.267 37.8047C15.267 38.3199 15.721 38.7361 16.283 38.7361H39.6513C40.2133 38.7361 40.6674 38.3199 40.6674 37.8047V16.3837C40.6674 15.8686 40.2133 15.4524 39.6513 15.4524ZM22.8014 35.293H19.0326L19.0326 24.1809H22.8014L22.8014 35.293ZM20.9186 22.6616C20.4865 22.6616 20.0642 22.5442 19.7049 22.3241C19.3457 22.1041 19.0657 21.7914 18.9004 21.4255C18.7351 21.0596 18.6918 20.657 18.7761 20.2686C18.8604 19.8801 19.0684 19.5233 19.3739 19.2433C19.6794 18.9633 20.0687 18.7725 20.4924 18.6953C20.9161 18.618 21.3553 18.6577 21.7545 18.8092C22.1537 18.9608 22.4948 19.2174 22.7348 19.5467C22.9749 19.876 23.103 20.2632 23.103 20.6592C23.0998 21.7652 22.1219 22.6616 20.9186 22.6616ZM36.9113 35.293H33.1457V29.8883C33.1457 28.5989 33.1203 26.9429 31.1867 26.9429C29.2277 26.9429 28.926 28.3457 28.926 29.7951V35.293H25.1636L25.1636 24.1809H28.7768V25.7001H28.8276C29.3293 24.827 30.558 23.9044 32.3932 23.9044C36.2096 23.9044 36.9113 26.2065 36.9113 29.1985V35.293V35.293Z"
    fill="#1F1F1F"/>
</svg>
