<?xml version="1.0" standalone="no"?>
<!DOCTYPE svg PUBLIC "-//W3C//DTD SVG 1.0//EN" "http://www.w3.org/TR/2001/REC-SVG-20010904/DTD/svg10.dtd">
<svg xmlns="http://www.w3.org/2000/svg" xmlns:xlink="http://www.w3.org/1999/xlink" id="body_1" width="512" height="384">

  <g transform="matrix(0.10940172 0 0 0.10940172 -0 21.333334)">
    <path d="M3122.8103 2257.5417C 2784.1455 2539.2686 2282.866 2620.8894 1862.5314 2454.71C 1837.0864 2444.6548 1811.9199 2433.8335 1787.0319 2422.246C 1766.7007 2412.7935 1746.6029 2402.849 1726.7384 2392.4126C 1617.3738 2334.9707 1515.7043 2263.0364 1428.3063 2179.5103C 1409.8555 2161.9077 1392.0686 2143.785 1374.9453 2125.1416C 1284.72 2026.9384 1213.855 1915.1647 1171.3728 1793.803C 1166.8984 1781.0312 1162.7437 1768.1571 1158.9084 1755.1805C 1160.0149 1687.5483 1164.7965 1627.3285 1172.848 1573.5498C 1175.417 1556.4268 1178.3098 1539.951 1181.5264 1524.1226C 1208.7045 1390.1981 1274.6895 1263.01 1394.4164 1178.9183C 1502.4164 1103.0625 1633.5383 1066.5176 1758.6492 1020.7288C 1778.9437 1013.29193 1799.0907 1005.6215 1818.9426 997.4965C 1820.8972 996.6973 1822.8435 995.8943 1824.7815 995.08734C 2048.747 902.15753 2189.2356 668.3336 2431.873 615.3292C 2442.2725 614.99725 2452.684 614.8784 2463.1077 614.9726C 2466.9062 614.9972 2470.7043 615.0711 2474.5027 615.1569C 2479.7761 615.2799 2485.0496 615.4603 2490.323 615.698C 2498.903 616.07886 2507.4832 616.6033 2516.063 617.2714C 2525.3438 617.98425 2534.612 618.86523 2543.868 619.91425C 2716.6484 639.29913 2874.5305 712.42596 3007.2505 819.57776C 3017.441 827.8015 3027.4834 836.2299 3037.3787 844.86304C 2613.1401 419.0911 2614.0723 -269.88312 3039.4614 -694.50543C 3464.8506 -1119.1277 4153.825 -1118.8169 4578.831 -693.8111C 5003.837 -268.80524 5004.1475 420.1695 4579.5254 845.5585C 4154.903 1270.9475 3465.929 1271.8796 3040.157 847.64136L3040.157 847.64136L3040.157 1995.7881C 3044.6682 2004.1593 3049.0688 2012.5837 3053.359 2021.0612C 3099.7253 2112.5278 3133.738 2209.6492 3153.1846 2308.2212C 3155.1516 2318.178 3156.9668 2328.1511 3158.63 2338.1406C 3159.9207 2345.762 3161.1172 2353.3955 3162.2195 2361.0413C 3162.9077 2365.7983 3163.5632 2370.5554 3164.186 2375.3125C 3164.8254 2380.1436 3165.4277 2384.9824 3165.9932 2389.8296C 3548.246 1657.248 3414.8013 2014.6462 3122.8103 2257.5417zM1807.8975 613.5209C 1801.1123 617.6878 1794.1589 621.5885 1787.0375 625.2229C 1745.2314 646.6855 1698.2504 659.3712 1650.7776 665.8858C 1604.8782 672.1919 1557.0612 672.782 1512.9934 659.3712C 1468.9377 645.9478 1428.9387 616.9502 1412.0981 577.1725C 1382.5844 507.51218 1425.7797 422.84277 1478.8822 368.3513C 1484.6595 362.4263 1490.5476 356.85788 1496.4725 351.7075C 1571.566 325.8199 1685.2327 306.0661 1757.6836 346.31097C 1998.0839 355.3583 1902.29 555.5749 1807.8975 613.5209z" stroke="none" fill="#E1E7FF" fill-rule="nonzero" />
    <path d="M3507.3499 1308.8478L2537.3777 1308.8478L2537.3777 382.7102C 2547.7773 382.3783 2558.1887 382.25946 2568.6123 382.3537C 2572.411 382.3783 2576.2092 382.4521 2580.0073 382.538C 2585.2808 382.661 2590.5542 382.84125 2595.8276 383.0787C 2604.4077 383.4599 2612.9878 383.98444 2621.5676 384.6522C 2630.8484 385.3652 2640.1167 386.24622 2649.3726 387.2952C 2822.1528 406.6802 2980.0352 479.807 3112.755 586.9587C 3122.9453 595.1822 3132.9883 603.6106 3142.8835 612.24396C 3174.6467 639.9564 3204.7725 669.4912 3233.1086 700.6993C 3233.1877 700.8036 3233.274 700.90216 3233.3667 700.99426C 3290.6384 766.4624 3340.3352 838.1868 3381.5134 914.80615C 3386.0247 923.17737 3390.4253 931.60175 3394.7153 940.0792C 3441.0818 1031.5459 3475.0945 1128.6674 3494.541 1227.2393C 3496.5083 1237.196 3498.3232 1247.1692 3499.9863 1257.1587C 3501.277 1264.7799 3502.4736 1272.4135 3503.576 1280.0594C 3504.2642 1284.8165 3504.9197 1289.5736 3505.5425 1294.3307C 3506.182 1299.1615 3506.7844 1304.0005 3507.3499 1308.8478z" stroke="none" fill="#B6C7FF" fill-rule="nonzero" />
    <path d="M3505.5425 1294.3306L2524.4338 1294.3306L2524.4338 368.193C 2534.8333 367.86102 2545.2449 367.74213 2555.6685 367.8364C 2559.467 367.861 2563.2651 367.9349 2567.0635 368.0207C 2572.337 368.1437 2577.6104 368.32407 2582.8838 368.5618C 2591.4639 368.9426 2600.044 369.46707 2608.6238 370.1352C 2617.9045 370.84802 2627.1729 371.72894 2636.4287 372.77798C 2809.209 392.16287 2967.0913 465.28967 3099.8113 572.44147C 3110.0017 580.6652 3120.0444 589.0936 3129.9395 597.72675C 3231.6707 686.3663 3317.2249 795.3129 3381.5137 914.80615C 3386.025 923.17737 3390.4253 931.60175 3394.7156 940.0792C 3441.082 1031.5459 3475.0947 1128.6674 3494.5413 1227.2393C 3496.5083 1237.196 3498.3232 1247.1692 3499.9866 1257.1587C 3501.2773 1264.7799 3502.474 1272.4135 3503.5762 1280.0594C 3504.2646 1284.8165 3504.92 1289.5735 3505.5425 1294.3306z" stroke="none" fill="#D1DBFF" fill-rule="nonzero" />
    <path d="M3099.8113 572.4415L2555.6685 572.4415L2555.6685 367.8364C 2559.467 367.861 2563.2651 367.9349 2567.0635 368.0207C 2572.337 368.1437 2577.6104 368.32407 2582.8838 368.5618C 2591.4639 368.9426 2600.044 369.46707 2608.6238 370.1352C 2617.9045 370.84802 2627.1729 371.72894 2636.4287 372.77798C 2809.2092 392.1629 2967.0913 465.2897 3099.8113 572.4415zM3381.5137 914.8062L2555.6685 914.8062L2555.6685 597.7268L3129.9395 597.7268C 3231.6707 686.3663 3317.2249 795.313 3381.5137 914.8062zM3499.9866 1257.1587L2555.6685 1257.1587L2555.6685 940.0793L3394.7153 940.0793C 3441.0818 1031.546 3475.0945 1128.6674 3494.541 1227.2393C 3496.5083 1237.196 3498.3232 1247.1692 3499.9866 1257.1587z" stroke="none" fill="#B6C7FF" fill-rule="nonzero" />
    <path d="M3099.8113 572.4415L2582.8838 572.4415L2582.8838 368.5618C 2591.4639 368.9426 2600.044 369.46707 2608.6238 370.1352C 2617.9045 370.84802 2627.1729 371.72894 2636.4287 372.77798C 2809.2092 392.1629 2967.0913 465.2897 3099.8113 572.4415zM3381.5137 914.8062L2582.8838 914.8062L2582.8838 597.7268L3129.9395 597.7268C 3231.6707 686.3663 3317.2249 795.313 3381.5137 914.8062zM3499.9866 1257.1587L2582.8838 1257.1587L2582.8838 940.0793L3394.7156 940.0793C 3441.082 1031.546 3475.0947 1128.6674 3494.5413 1227.2393C 3496.5083 1237.196 3498.3232 1247.1692 3499.9866 1257.1587z" stroke="none" fill="#F2F4FF" fill-rule="nonzero" />
    <path d="M2630.6692 856.1772L2624.007 850.17126C 2620.1816 846.7025 2619.8757 840.79584 2623.3223 836.95044L2623.3223 836.95044L2778.8547 664.4274C 2782.3237 660.60236 2788.2302 660.2965 2792.0754 663.74274L2792.0754 663.74274L2798.7375 669.74866C 2802.5627 673.2174 2802.8687 679.1241 2799.4224 682.9695L2799.4224 682.9695L2643.89 855.4925C 2640.421 859.31757 2634.5144 859.6234 2630.6692 856.1772z" stroke="none" fill="#FFFFFF" fill-rule="nonzero" />
    <path transform="matrix(0.7427359 0.6695844 -0.6695844 0.7427359 1241.9376 -1680.1017)"  d="M2802.8945 650.65155L2811.8643 650.65155C 2814.3472 650.6515 2816.7283 651.63776 2818.4836 653.39325C 2820.2393 655.1488 2821.2256 657.52985 2821.2253 660.0126L2821.2253 660.0126L2821.2253 892.29376C 2821.2256 894.7765 2820.2393 897.1575 2818.484 898.913C 2816.7283 900.6686 2814.3472 901.65485 2811.8643 901.65485L2811.8643 901.65485L2802.8948 901.65485C 2797.725 901.65485 2793.534 897.46375 2793.5337 892.29376L2793.5337 892.29376L2793.5337 660.01263C 2793.5337 654.8428 2797.7246 650.6517 2802.8945 650.65155z" stroke="none" fill="#FFFFFF" fill-rule="nonzero" />
    <path d="M2873.22 1174.389L2866.5579 1168.3832L2873.22 1174.389L2866.5579 1168.3832L3022.0903 995.86017L2873.22 1174.389L2866.5579 1168.3832L3022.0903 995.86017L3028.7524 1001.86615L2873.22 1174.389L2866.5579 1168.3832L3022.0903 995.86017L3028.7524 1001.86615L2873.2197 1174.3892L2873.22 1174.389L2866.5579 1168.3832L3022.0903 995.86017L3028.7524 1001.86615L2873.2197 1174.3892L2873.22 1174.389zM2947.2312 1183.4222L2940.569 1177.4164L2947.2312 1183.4222L2940.569 1177.4164L3096.1016 1004.8934L2947.2312 1183.4222L2940.569 1177.4164L3096.1016 1004.8934L3102.7637 1010.8993L2947.2312 1183.4222L2940.569 1177.4164L3096.1016 1004.8934L3102.7637 1010.8993L2947.2312 1183.4222L2947.2312 1183.4222L2940.569 1177.4164L3096.1016 1004.8934L3102.7637 1010.8993L2947.2312 1183.4222z" stroke="none" fill="#FFFFFF" fill-rule="nonzero" />
    <path transform="matrix(0.74272424 0.6695973 -0.6695973 0.74272424 1021.26294 -1687.625)"  d="M2700.2502 425.58435L2713.3022 425.58435C 2717.345 425.58435 2720.622 428.86154 2720.622 432.90417L2720.622 432.90417L2720.622 537.45685C 2720.622 541.49945 2717.345 544.77673 2713.3022 544.7768L2713.3022 544.7768L2700.2502 544.7768C 2696.2075 544.77673 2692.9304 541.4996 2692.9304 537.4569L2692.9304 537.4569L2692.9304 432.90417C 2692.9304 428.86157 2696.2075 425.58438 2700.2502 425.58435z" stroke="none" fill="#FFFFFF" fill-rule="nonzero" />
    <path d="M1726.7438 788.821C 1747.0383 781.3841 1767.1855 773.7137 1787.0375 765.5887L1787.0375 765.5887L1787.0375 2422.2446C 1766.7062 2412.792 1746.6083 2402.8477 1726.7438 2392.4111C 1617.3794 2334.9692 1515.7098 2263.035 1428.3118 2179.5088C 1409.8611 2161.9062 1392.0742 2143.7834 1374.9509 2125.1401C 1284.7256 2026.9369 1213.8605 1915.1632 1171.3783 1793.8015C 1166.9039 1781.0298 1162.7491 1768.1556 1158.914 1755.1791C 1136.5433 1679.95 1125.7827 1601.7482 1127.0033 1523.2728C 1128.1095 1455.6406 1132.8914 1395.4208 1140.9427 1341.6421C 1143.512 1324.519 1146.4047 1308.0432 1149.6211 1292.2148C 1176.7994 1158.2904 1242.7844 1031.1023 1362.5112 947.0106C 1470.5112 871.1547 1601.633 834.6098 1726.7438 788.821z" stroke="none" fill="#CCD5FF" fill-rule="nonzero" />
    <path d="M1726.7438 788.821L1726.7438 1755.1791L1158.914 1755.1791L1726.7438 788.821L1726.7438 1755.1791L1158.914 1755.1791C 1160.0201 1687.5469 1164.802 1627.327 1172.8534 1573.5483C 1175.4225 1556.4253 1178.3153 1539.9496 1181.5317 1524.1211C 1208.7101 1390.1967 1274.6951 1263.0085 1394.4219 1178.9169C 1470.5112 871.1547 1601.633 834.6098 1726.7438 788.821zM1374.951 1793.8015L1374.951 2125.1401C 1284.7257 2026.9369 1213.8606 1915.1632 1171.3784 1793.8015zM1726.7438 1793.8015L1726.7438 2392.4111C 1617.3794 2334.9692 1515.7098 2263.035 1428.3118 2179.5088L1428.3118 2179.5088L1428.3118 1793.8015z" stroke="none" fill="#ECEFFF" fill-rule="nonzero" />
    <path d="M1683.1904 1280.5321L1689.0142 1280.5321C 1697.8589 1280.5321 1705.0288 1287.702 1705.0288 1296.5468L1705.0288 1296.5468L1705.0288 1524.9556C 1705.0288 1533.8002 1697.8588 1540.9702 1689.014 1540.9703L1689.014 1540.9703L1683.1904 1540.9703C 1674.3458 1540.9702 1667.1758 1533.8002 1667.1757 1524.9556L1667.1757 1524.9556L1667.1757 1296.5469C 1667.1758 1287.7023 1674.3458 1280.5322 1683.1904 1280.5321z" stroke="none" fill="#ABBBF4" fill-rule="nonzero" />
    <path d="M1658.034 1287.474C 1658.034 1278.6292 1665.2042 1271.459 1674.0491 1271.459L1674.0491 1271.459L1679.8721 1271.459C 1688.7169 1271.459 1695.8871 1278.6292 1695.8871 1287.474L1695.8871 1287.474L1695.8871 1515.882C 1695.8871 1524.7268 1688.7169 1531.897 1679.8721 1531.897L1679.8721 1531.897L1674.0491 1531.897C 1665.2042 1531.897 1658.034 1524.7268 1658.034 1515.882L1658.034 1515.882L1658.034 1287.474z" stroke="none" fill="#CCD5FF" fill-rule="nonzero" />
    <path d="M1559.2998 898.5789L1565.6139 898.5789C 1570.7838 898.5789 1574.9749 902.76996 1574.9749 907.93994L1574.9749 907.93994L1574.9749 1666.7505C 1574.9749 1671.9203 1570.7838 1676.1113 1565.6139 1676.1115L1565.6139 1676.1115L1559.2997 1676.1115C 1554.1298 1676.1113 1549.9387 1671.9203 1549.9387 1666.7505L1549.9387 1666.7505L1549.9387 907.94C 1549.9387 902.77 1554.1298 898.5789 1559.2998 898.5789z" stroke="none" fill="#FFFFFF" fill-rule="nonzero" />
    <path d="M1484.459 1217.333C 1484.459 1212.1631 1488.65 1207.972 1493.82 1207.972L1493.82 1207.972L1500.134 1207.972C 1505.304 1207.972 1509.495 1212.1631 1509.495 1217.333L1509.495 1217.333L1509.495 1666.7511C 1509.495 1671.921 1505.304 1676.112 1500.134 1676.112L1500.134 1676.112L1493.82 1676.112C 1488.65 1676.112 1484.459 1671.921 1484.459 1666.7511L1484.459 1666.7511L1484.459 1217.333z" stroke="none" fill="#FFFFFF" fill-rule="nonzero" />
    <path d="M1444.062 2194.292L1444.062 1807.443L1726.744 1807.443L1726.744 1793.801L1428.312 1793.801L1428.312 2179.509L1444.062 2194.292L1444.062 2194.292" stroke="none" fill="#ABBBF4" fill-rule="nonzero" />
    <path d="M1176.963 1809.25L1374.951 1809.25L1374.951 1793.801L1171.378 1793.801L1176.963 1809.25L1176.963 1809.25" stroke="none" fill="#ABBBF4" fill-rule="nonzero" />
    <path d="M1797.631 761.179L1797.631 2426.184L1787.037 2422.245L1787.037 765.589L1797.631 761.179L1797.631 761.179" stroke="none" fill="#ABBBF4" fill-rule="nonzero" />
    <path d="M2040.6573 2706.5564C 1967.9147 2711.1333 1896.8555 2722.5254 1831.3462 2748.128C 1753.2821 2778.6555 1923.789 2819.968 1947.9042 2823.5547C 2106.9993 2847.2158 2269.3433 2853.8389 2431.246 2857.2468C 2648.0144 2861.8096 2864.873 2860.7017 3081.8218 2853.923C 3219.9788 2849.604 3359.393 2842.8066 3492.648 2812.1306C 3510.3677 2808.0515 3528.912 2803.0615 3541.0347 2791.7788C 3566.331 2768.2349 3548.8672 2728.7358 3516.3896 2712.4177C 3451.3735 2679.7524 3336.1538 2695.207 3263.4292 2696.092L3263.4292 2696.092L2966.4138 2699.707C 2766.9692 2702.1348 2567.524 2704.5623 2368.0776 2706.9897C 2263.977 2708.2568 2150.4014 2699.651 2040.6573 2706.5564z" stroke="none" fill="#E1E7FF" fill-rule="nonzero" />
    <path d="M2096.9119 1559.8225C 2096.9119 1559.8225 2044.6918 1556.5175 2040.7257 1573.7039C 2036.7596 1590.8903 2030.1495 1647.0764 2050.6409 1653.0255C 2071.1323 1658.9746 2109.4712 1655.6696 2109.4712 1649.0594C 2109.4712 1642.4493 2096.9119 1559.8225 2096.9119 1559.8225z" stroke="none" fill="#367ACC" fill-rule="nonzero" />
    <path d="M2110.6516 1635.6217C 2110.6516 1635.6217 2033.1066 1629.5121 2027.217 1661.282C 2021.3275 1693.0519 2011.5116 1796.915 2041.9408 1807.9124C 2072.37 1818.9097 2129.3018 1812.7999 2129.3018 1800.5808C 2129.3018 1788.3617 2110.6516 1635.6217 2110.6516 1635.6217z" stroke="none" fill="#6192DE" fill-rule="nonzero" />
    <path d="M2286.4011 961.6488C 2286.4011 961.6488 2303.424 993.9943 2361.125 972.8419C 2418.826 951.6895 2468.3455 921.3646 2472.3396 908.1034C 2476.3337 894.84216 2478.317 913.3506 2488.2322 921.2828C 2498.1475 929.21497 2583.4182 965.5707 2619.1138 991.35077C 2629.5159 998.86334 2641.0745 1004.46246 2651.5588 1011.86676C 2662.3887 1019.5198 2672.6174 1027.9902 2682.1553 1037.2041C 2708.0664 1062.2247 2725.865 1092.499 2744.2969 1123.0695C 2750.2712 1132.9785 2756.252 1143.0062 2761.109 1153.5244C 2762.9956 1157.6101 2766.3103 1163.4988 2765.89 1168.2295C 2765.4636 1173.0281 2762.7847 1173.4825 2758.587 1174.4512C 2758.587 1174.4512 2682.5703 1380.6876 2660.0957 1387.2977C 2637.621 1393.9078 2332.45 1363.5012 2286.401 1347.637C 2240.3518 1331.7727 2040.7255 1216.7561 2040.7255 1216.7561C 2040.7255 1216.7561 2111.4539 1031.8473 2188.1316 994.0819C 2264.8093 956.3165 2279.569 945.8287 2286.4011 961.6488z" stroke="none" fill="#FEBD57" fill-rule="nonzero" />
    <path d="M2233.7007 971.4365C 2233.7007 971.4365 2180.1997 1147.3496 2190.776 1167.8411C 2201.352 1188.3325 2255.5552 1191.6376 2332.894 1191.6376C 2410.233 1191.6376 2480.9612 1188.9935 2491.5374 1159.2479C 2502.1135 1129.5023 2529.7922 989.13763 2547.351 983.6338C 2564.9033 978.1321 2619.0725 991.3404 2619.1128 991.3502C 2614.9082 990.3248 2607.6113 1013.62054 2606.231 1016.7649C 2580.2356 1075.9827 2562.1477 1144.9049 2573.984 1209.7108C 2574.749 1214.7826 2576.209 1219.7247 2578.3228 1224.3981C 2580.1636 1228.1373 2585.784 1232.38 2585.2427 1235.877C 2584.5015 1240.6664 2576.0183 1248.3828 2572.7007 1251.9574C 2566.5217 1258.615 2559.1416 1264.8241 2550.368 1267.6542C 2529.8765 1274.2644 2211.2676 1234.6035 2184.166 1218.7391C 2157.0645 1202.8748 2161.0305 1124.8751 2176.234 1083.8922C 2191.4373 1042.9093 2233.7007 971.4365 2233.7007 971.4365z" stroke="none" fill="#FF8C3E" fill-rule="nonzero" />
    <path d="M2742.0566 2563.2388C 2732.8127 2574.4739 2623.0796 2584.3938 2623.0796 2584.3938C 2623.0796 2584.3938 2619.0723 2571.0813 2612.5574 2549.2502C 2587.9973 2466.8796 2527.7036 2263.2578 2512.031 2196.3757C 2492.2036 2111.7678 2453.3154 1919.8408 2384.9805 1850.538C 2375.1992 1840.6183 2358.6724 2050.958 2348.7527 2117.0535C 2338.845 2183.1614 2336.2024 2325.2725 2339.5088 2408.565C 2342.803 2491.8574 2309.0977 2588.3643 2309.0977 2588.3643L2309.0977 2588.3643L2163.68 2602.2422C 2163.68 2602.2422 2162.3154 2588.524 2160.0415 2565.5374C 2149.0276 2454.0586 2116.8584 2124.564 2117.3997 2084.0117C 2118.0632 2035.0884 2100.2148 1698.6362 2090.3074 1587.5876C 2088.107 1562.9539 2088.3774 1535.4929 2090.1104 1507.1471C 2091.3887 1486.1519 2093.466 1464.6772 2095.9368 1443.5222C 2105.1436 1364.4458 2119.7717 1289.7087 2118.272 1260.6744C 2115.8257 1213.3738 2188.129 994.0792 2188.129 994.0792C 2190.5627 986.6178 2243.0017 955.6535 2233.6965 971.43695C 2224.4033 987.22015 2152.4324 1161.8936 2182.843 1190.9772C 2213.2544 1220.0608 2481.6194 1207.498 2492.8547 1201.5485C 2504.102 1195.5991 2532.522 988.0439 2555.6558 970.19543C 2578.79 952.3469 2596.6384 967.55255 2611.8438 976.14484C 2626.4717 984.40533 2619.6863 990.84656 2619.1458 991.32574C 2619.1323 991.3321 2619.1199 991.34033 2619.1086 991.35034C 2547.7273 1029.69 2558.9624 1213.4475 2568.2188 1228.6531C 2577.4746 1243.8585 2586.067 1233.9387 2586.067 1233.9387L2586.067 1233.9387L2615.8022 1347.6425L2705.7078 1421.0149C 2705.7078 1421.0149 2709.7644 1454.9662 2715.296 1500.0421C 2718 1522.0698 2721.0486 1546.7528 2724.1462 1571.4357C 2732.2468 1635.9211 2699.6328 1702.43 2702.9885 1719.2213C 2710.2534 1755.5697 2712.036 1878.3633 2711.372 1963.6348C 2710.7205 2048.9062 2720.3801 2109.5115 2727.1785 2231.3606C 2733.3682 2342.2886 2751.3127 2552.0037 2742.0566 2563.2388z" stroke="none" fill="#1A4EA2" fill-rule="nonzero" />
    <path d="M2744.082 2381.4453C 2739.677 2277.9253 2730.0552 2174.7056 2725.7642 2071.18C 2721.6362 1971.6556 2724.9597 1871.9951 2724.4058 1772.4224C 2724.219 1738.8883 2739.913 1699.0192 2735.4067 1665.807C 2731.1738 1634.6089 2728.0881 1602.8129 2724.1475 1571.4406C 2724.147 1571.4358 2407.436 1607.8448 2407.436 1607.8448C 2407.396 1608.8202 2407.5012 1611.4076 2407.7456 1615.3075L2407.7456 1615.3075L2092.897 1611.7389L2093.5032 1627.3103C 2093.5032 1627.3103 2264.3613 1639.6757 2317.043 1635.1503C 2369.7246 1630.6249 2409.72 1641.6768 2411.2407 1656.3168L2411.2407 1656.3168L2411.2407 1656.318C 2417.363 1717.7839 2430.4539 1816.2777 2447.5576 1824.2516C 2471.8843 1835.6091 2507.0208 1823.446 2546.402 1833.2041C 2637.287 1855.7255 2620.8115 1975.754 2662.5632 2206.9692C 2701.7036 2423.7256 2696.1729 2507.7131 2612.5571 2549.2498C 2619.0718 2571.081 2623.0793 2584.3938 2623.0793 2584.3938C 2623.0793 2584.3938 2732.8127 2574.474 2742.0564 2563.2388C 2745.2095 2559.4058 2745.7627 2554.413 2746.655 2549.7366C 2756.7742 2496.6506 2746.4312 2435.1152 2744.082 2381.4453z" stroke="none" fill="#20307B" fill-rule="nonzero" />
    <path d="M2478.2205 833.1827C 2466.5793 857.7549 2473.6968 925.6329 2473.6968 925.6329C 2473.6968 925.6329 2456.881 945.03015 2399.3408 976.7074C 2341.8008 1008.3846 2285.551 987.6966 2285.551 984.46387C 2285.551 981.2309 2288.1448 919.16705 2288.1448 919.16705C 2252.5833 906.23553 2240.291 831.89185 2241.5571 808.61035C 2242.8232 785.3411 2242.2332 771.11884 2241.594 737.49945C 2241.3987 729.69385 2241.9336 721.88696 2243.192 714.18097C 2246.1052 696.8981 2251.932 689.00635 2251.932 689.00635L2251.932 689.00635L2418.185 697.8569L2421.971 698.0536C 2421.971 698.0536 2509.246 755.5938 2511.1885 788.5739C 2513.1306 821.5419 2478.2205 833.1827 2478.2205 833.1827z" stroke="none" fill="#FFC890" fill-rule="nonzero" />
    <path d="M2441.2207 800.0304C 2435.6523 786.0049 2433.3657 770.8977 2428.9531 756.4543C 2424.54 742.01086 2417.4597 727.5797 2405.02 718.9997C 2394.6943 711.8702 2381.8242 709.5837 2369.3354 708.2808C 2327.3694 703.9417 2285.0842 708.8831 2243.192 714.181C 2246.1052 696.89813 2251.932 689.0064 2251.932 689.0064L2251.932 689.0064L2418.185 697.85693C 2418.2832 697.9921 2418.3691 698.13965 2418.4678 698.27484C 2422.4382 704.15063 2426.0642 710.3828 2427.736 717.26636C 2429.285 723.63385 2429.0881 730.2964 2429.6907 736.82367C 2431.682 758.2243 2442.376 778.5681 2441.2207 800.0304z" stroke="none" fill="#FF8C5A" fill-rule="nonzero" />
    <path d="M2456.236 771.7611C 2456.236 771.7611 2450.259 775.6403 2447.7522 807.32C 2445.2454 838.9997 2428.437 726.65674 2419.3843 712.04724C 2410.3315 697.43774 2453.0037 717.45306 2456.236 734.90924C 2459.4685 752.3654 2456.236 771.7611 2456.236 771.7611z" stroke="none" fill="#361029" fill-rule="nonzero" />
    <path d="M2406.4536 712.0472C 2406.4536 712.0472 2436.1936 740.08136 2456.236 771.7611C 2456.236 771.7611 2493.7346 736.8488 2511.1907 788.5708C 2511.1907 788.5708 2525.414 745.2536 2517.6558 720.6856C 2509.8975 696.1176 2426.4956 606.8972 2379.2993 602.3715C 2332.103 597.8458 2301.7163 623.70685 2301.7163 623.70685C 2301.7163 623.70685 2385.7646 703.4087 2406.4536 712.0472z" stroke="none" fill="#6192DE" fill-rule="nonzero" />
    <path d="M2288.1394 919.1689C 2288.1394 919.1689 2309.4749 926.9272 2357.964 919.1689C 2406.4534 911.4106 2431.0215 886.1961 2440.0728 864.8608C 2449.124 843.52545 2452.3567 870.6795 2437.4866 898.4801C 2422.6165 926.2807 2346.973 953.4348 2288.1392 939.8577L2288.1392 939.8577L2288.1394 919.1689z" stroke="none" fill="#FF8C5A" fill-rule="nonzero" />
    <path d="M2243.5723 712.0472C 2243.5723 712.0472 2146.5503 623.0603 2183.4023 599.13885C 2220.2544 575.2174 2273.2693 586.85486 2313.354 623.06024C 2353.4387 659.2656 2406.4536 712.0471 2406.4536 712.0471C 2406.4536 712.0471 2261.0718 686.5991 2243.5723 712.0472z" stroke="none" fill="#4D87DB" fill-rule="nonzero" />
    <path d="M2492.2773 781.4914C 2493.6743 783.22614 2494.558 785.317 2494.8289 787.5278C 2496.3474 796.02136 2493.9812 809.87305 2485.516 814.33997C 2479.2458 817.6487 2472.9275 814.2599 2469.875 808.5162C 2466.535 802.23096 2466.7273 793.46185 2469.5432 787.03436C 2472.9846 779.1797 2485.5037 774.0318 2492.2773 781.4914z" stroke="none" fill="#FF8C5A" fill-rule="nonzero" />
    <path d="M2255.173 787.72C 2255.173 781.33167 2258.125 776.15295 2261.766 776.15295C 2265.4072 776.15295 2268.3591 781.33167 2268.3591 787.72C 2268.3591 794.1083 2265.4072 799.287 2261.766 799.287C 2258.125 799.287 2255.173 794.1083 2255.173 787.72" stroke="none" fill="#361029" fill-rule="nonzero" />
    <path d="M2347.939 788.571C 2347.939 782.1827 2350.8909 777.00397 2354.532 777.00397C 2358.173 777.00397 2361.125 782.1827 2361.125 788.571C 2361.125 794.9593 2358.173 800.138 2354.532 800.138C 2350.8909 800.138 2347.939 794.9593 2347.939 788.571" stroke="none" fill="#361029" fill-rule="nonzero" />
    <path d="M2273.4497 737.5644C 2276.6257 737.7554 2279.9324 738.2098 2282.5442 740.0268C 2279.4314 735.7293 2280.1443 729.76105 2284.1816 726.3176C 2288.2192 722.8742 2294.225 723.11224 2297.9775 726.8644C 2301.73 730.61646 2301.9683 736.62244 2298.5251 740.66016C 2295.0818 744.6978 2289.1135 745.411 2284.816 742.2984L2284.816 742.2984L2287.3743 742.2984C 2274.1392 744.5479 2260.6145 746.8008 2247.362 744.6558C 2243.6223 744.0506 2238.4146 742.19434 2238.9646 737.3902C 2239.3586 733.9493 2242.9363 733.3523 2245.71 732.3761C 2252.837 738.8691 2262.9192 736.931 2273.4497 737.5644zM2342.5488 737.5644C 2339.3728 737.7554 2336.0662 738.2098 2333.4543 740.0268C 2337.1223 738.6943 2341.2295 739.57733 2344.0256 742.29974L2344.0256 742.29974L2346.5842 742.29974C 2359.8193 744.54926 2373.3438 746.8021 2386.5964 744.65717C 2390.336 744.05194 2395.544 742.1957 2394.994 737.39154C 2394.5999 733.9506 2391.0222 733.35364 2388.2485 732.37744C 2363.1614 738.8691 2353.0793 736.931 2342.5488 737.5644z" stroke="none" fill="#361029" fill-rule="nonzero" />
    <path d="M2289.868 794.291L2279.63 825.003L2296.649 826.459L2289.868 794.291L2289.868 794.291" stroke="none" fill="#FF6029" fill-rule="nonzero" />
    <path d="M2260.8071 820.041C 2260.8071 822.7102 2259.8635 824.9885 2257.976 826.8759C 2256.0889 828.76337 2253.8105 829.7071 2251.141 829.70703C 2248.472 829.7071 2246.1936 828.76337 2244.3062 826.8759C 2242.419 824.9885 2241.475 822.7102 2241.475 820.041C 2241.475 817.3718 2242.419 815.09357 2244.3062 813.2061C 2246.1936 811.3187 2248.472 810.375 2251.141 810.375C 2253.8105 810.375 2256.0889 811.3187 2257.976 813.2061C 2259.8635 815.09357 2260.8071 817.3718 2260.8071 820.041C 2260.8071 820.15356 2260.8052 820.266 2260.8013 820.37836" stroke="none" fill="#FF8C5A" fill-rule="nonzero" fill-opacity="0.2784314" />
    <path transform="matrix(0.7071067 -0.7071068 0.7071068 0.7071067 123.364746 1918.5791)"  d="M2387.278 810.375C 2387.2783 813.0442 2386.3345 815.3225 2384.447 817.2099C 2382.5596 819.09735 2380.2812 820.041 2377.612 820.041C 2374.9429 820.041 2372.6646 819.09735 2370.777 817.2099C 2368.8896 815.3225 2367.946 813.0442 2367.946 810.375C 2367.946 807.7058 2368.8896 805.4275 2370.777 803.5401C 2372.6646 801.6527 2374.9429 800.70905 2377.612 800.709C 2380.2812 800.70905 2382.5596 801.6527 2384.447 803.5401C 2386.3345 805.4275 2387.2783 807.7058 2387.278 810.375C 2387.2783 810.4875 2387.2764 810.6 2387.2722 810.71234" stroke="none" fill="#FF8C5A" fill-rule="nonzero" fill-opacity="0.2784314" />
    <path d="M2183.682 619.8645C 2185.8386 615.5064 2188.8699 611.6392 2192.587 608.5041C 2194.4214 606.89795 2196.397 605.46063 2198.4897 604.2097C 2199.5168 603.54614 2200.6155 603.0119 2201.689 602.426C 2202.799 601.92114 2203.89 601.3557 2205.0347 600.9265C 2209.5974 599.13434 2214.381 597.96606 2219.256 597.4533C 2224.1243 596.9562 2229.0305 596.9584 2233.8982 597.4597C 2236.3367 597.6477 2238.7407 598.0642 2241.1553 598.42365C 2243.5417 598.91437 2245.947 599.345 2248.2966 599.9866C 2253.0156 601.17896 2257.671 602.61224 2262.2437 604.2806C 2271.3362 607.72815 2280.1235 611.9315 2288.514 616.8465C 2305.287 626.6492 2320.5645 638.7586 2334.653 651.9866C 2348.759 665.19727 2361.635 679.6631 2373.1218 695.2054C 2366.9604 687.79236 2360.521 680.6374 2353.8035 673.7406C 2347.123 666.8192 2340.2114 660.1423 2333.0686 653.7098C 2325.9194 647.29767 2318.5454 641.1424 2310.87 635.3968C 2307.0476 632.50366 2303.1357 629.7366 2299.1785 627.03937C 2295.1833 624.4012 2291.1497 621.82056 2287.0034 619.43634C 2278.7737 614.5746 2270.1604 610.39276 2261.25 606.93286C 2256.7925 605.23315 2252.2515 603.7622 2247.644 602.52563C 2245.3533 601.85864 2243.014 601.42114 2240.693 600.88696C 2238.3518 600.48224 2236.0142 600.01685 2233.65 599.77856C 2224.2432 598.64185 2214.5178 599.0765 2205.555 602.2928C 2196.6362 605.4275 2188.5188 611.4939 2183.682 619.8645z" stroke="none" fill="#1A4EA2" fill-rule="nonzero" />
    <path d="M2715.2964 1500.0421C 2607.3577 1517.03 2414.5286 1528.7076 2330.2527 1532.0635C 2247.7715 1535.3456 2143.705 1517.6937 2090.1106 1507.1472C 2091.389 1486.1519 2093.4663 1464.6774 2095.937 1443.5223C 2095.937 1443.5223 2310.2021 1304.756 2330.0417 1316.6548C 2349.8694 1328.5538 2529.2153 1313.2609 2555.6562 1300.7104C 2582.097 1288.1477 2561.606 1254.43 2552.3499 1222.0399C 2543.8838 1192.4143 2547.3167 1157.8187 2549.29 1127.5227C 2550.4895 1109.1112 2552.4373 1090.7007 2556.2 1072.621C 2559.7205 1055.7051 2564.1619 1036.0317 2574.0776 1021.7738C 2582.7017 1009.3733 2600.1848 986.2481 2618.6384 991.1991C 2618.7983 991.2403 2618.9553 991.29083 2619.1091 991.3504C 2616.1555 990.1704 2605.237 1001.4279 2603.2898 1003.4182C 2598.1777 1008.7417 2593.7173 1014.6543 2590.0022 1021.0315C 2581.701 1034.9895 2576.1553 1050.6365 2572.1335 1066.3186C 2562.362 1104.4207 2559.8228 1145.2777 2561.921 1184.4465C 2562.593 1196.9949 2561.2566 1217.5127 2568.2195 1228.6531C 2577.4753 1243.8585 2586.0676 1233.9387 2586.0676 1233.9387L2586.0676 1233.9387L2615.803 1347.6425L2705.7085 1421.0149C 2705.7085 1421.0149 2709.765 1454.9662 2715.2964 1500.0421z" stroke="none" fill="#20307B" fill-rule="nonzero" />
    <path d="M2085.0874 1599.8506C 2084.9556 1598.4491 2085.4592 1597.0625 2086.4592 1596.072C 2087.4595 1595.0814 2088.8508 1594.5916 2090.251 1594.7368C 2118.7803 1597.7167 2252.6794 1609.2676 2451.2156 1588.2461C 2675.9604 1564.4496 2732.5405 1563.753 2732.5405 1563.753L2732.5405 1563.753L2746.2078 1573.4596C 2755.6748 1580.1832 2759.417 1592.4459 2755.317 1603.31L2755.317 1603.31L2744.234 1632.6758C 2744.234 1632.6758 2584.7405 1619.3138 2469.724 1624.6019C 2363.1855 1629.5002 2125.9204 1624.8806 2091.5215 1624.173C 2089.131 1624.123 2087.16 1622.2845 2086.9443 1619.9033L2086.9443 1619.9033L2085.0874 1599.8506z" stroke="none" fill="#D03E48" fill-rule="nonzero" />
    <path d="M2621.5361 1495.6381C 2610.4163 1501.613 2606.4639 1506.2871 2611.052 1514.9497C 2615.6401 1523.6123 2642.016 1573.4117 2643.916 1576.9993C 2645.4165 1579.8319 2651.252 1578.4752 2652.6184 1581.0557C 2653.6187 1582.944 2653.4854 1582.6921 2653.8855 1583.4475C 2654.595 1584.7874 2654.026 1586.3646 2653.3918 1588.0149C 2653.4795 1587.9604 2653.5652 1587.9044 2653.6572 1587.855L2653.6572 1587.855L2679.6902 1573.8665C 2679.782 1573.8171 2679.8762 1573.7766 2679.9695 1573.7336C 2678.2559 1573.3451 2676.6382 1572.9427 2675.9287 1571.6028C 2675.5286 1570.8477 2675.6619 1571.0992 2674.6616 1569.211C 2673.295 1566.6305 2677.6633 1562.5042 2676.1633 1559.6718C 2674.2632 1556.0841 2647.8875 1506.2849 2643.299 1497.6223C 2638.7114 1488.9598 2632.656 1489.6631 2621.5361 1495.6381zM2648.9001 1570.9484L2648.6787 1571.0674C 2647.9524 1571.4727 2647.0942 1571.571 2646.2952 1571.341C 2645.4958 1571.1107 2644.8215 1570.571 2644.422 1569.8416L2644.422 1569.8416L2613.3276 1511.1333C 2612.5398 1509.5852 2613.1467 1507.6914 2614.6877 1506.8896L2614.6877 1506.8896L2614.9092 1506.7705C 2615.6353 1506.365 2616.4934 1506.2665 2617.2927 1506.4966C 2618.0918 1506.7268 2618.766 1507.2666 2619.1655 1507.9962L2619.1655 1507.9962L2650.26 1566.7046C 2651.0483 1568.2524 2650.4414 1570.1465 2648.9004 1570.9484zM2659.0835 1565.4767L2658.862 1565.5957C 2658.1357 1566.001 2657.2776 1566.0995 2656.4783 1565.8693C 2655.679 1565.639 2655.005 1565.0992 2654.6052 1564.3698L2654.6052 1564.3698L2623.5107 1505.6616C 2622.723 1504.1135 2623.33 1502.2196 2624.8708 1501.4178L2624.8708 1501.4178L2625.0923 1501.2988C 2625.8186 1500.8936 2626.6768 1500.7949 2627.4758 1501.0251C 2628.2751 1501.2554 2628.9495 1501.7952 2629.349 1502.5247L2629.349 1502.5247L2660.4434 1561.2329C 2661.2314 1562.7809 2660.6245 1564.6749 2659.0835 1565.4767zM2669.9797 1556.1086C 2670.7676 1557.6569 2670.161 1559.5508 2668.6199 1560.3527L2668.6199 1560.3527L2668.3982 1560.4714C 2667.672 1560.877 2666.814 1560.9755 2666.0146 1560.7454C 2665.2153 1560.5151 2664.5413 1559.9753 2664.1416 1559.2457L2664.1416 1559.2457L2633.047 1500.5375C 2632.259 1498.9894 2632.866 1497.0955 2634.407 1496.2938L2634.407 1496.2938L2634.6282 1496.1748C 2635.3545 1495.7694 2636.2126 1495.6709 2637.012 1495.901C 2637.8113 1496.1312 2638.4856 1496.671 2638.885 1497.4005z" stroke="none" fill="#FEBD57" fill-rule="nonzero" />
    <path d="M2634.6284 1496.1748L2634.4072 1496.2938L2634.6284 1496.1748L2634.4072 1496.2938L2665.5017 1555.0021L2634.6284 1496.1748L2634.4072 1496.2938L2665.5017 1555.0021L2665.7234 1554.8833L2634.6284 1496.1748L2634.4072 1496.2938L2665.5017 1555.0021L2665.7234 1554.8833L2634.629 1496.1752L2634.6284 1496.1748L2634.4072 1496.2938L2665.5017 1555.0021L2665.7234 1554.8833L2634.629 1496.1752L2634.6284 1496.1748zM2625.0923 1501.299L2624.8708 1501.418L2625.0923 1501.299L2624.8708 1501.418L2655.9653 1560.1261L2625.0923 1501.299L2624.8708 1501.418L2655.9653 1560.1261L2656.1868 1560.0071L2625.0923 1501.299L2624.8708 1501.418L2655.9653 1560.1261L2656.1868 1560.0071L2625.0925 1501.2988L2625.0923 1501.299L2624.8708 1501.418L2655.9653 1560.1261L2656.1868 1560.0071L2625.0925 1501.2988zM2614.9092 1506.7708L2614.6877 1506.8899L2614.9092 1506.7708L2614.6877 1506.8899L2645.7822 1565.5981L2614.9092 1506.7708L2614.6877 1506.8899L2645.7822 1565.5981L2646.0037 1565.4791L2614.9092 1506.7708L2614.6877 1506.8899L2645.7822 1565.5981L2646.0037 1565.4791L2614.9092 1506.7708L2614.9092 1506.7708L2614.6877 1506.8899L2645.7822 1565.5981L2646.0037 1565.4791L2614.9092 1506.7708z" stroke="none" fill="#FFFFFF" fill-rule="nonzero" />
    <path d="M2731.644 1710.608L2729.835 1718.54L2743.802 1735.097L2747.353 1733.189L2750.906 1731.28L2745.03 1710.376L2737.482 1707.471L2674.589 1588.726L2668.751 1591.863L2731.644 1710.608L2731.644 1710.608" stroke="none" fill="#061859" fill-rule="nonzero" />
    <path d="M2653.6575 1587.855C 2653.5654 1587.9044 2653.4797 1587.9604 2653.392 1588.0149C 2651.2637 1589.2971 2650.4888 1592.0068 2651.6177 1594.2206L2651.6177 1594.2206L2652.2686 1595.4496C 2652.8677 1596.5438 2653.8792 1597.3535 2655.0781 1597.6987C 2656.2769 1598.044 2657.564 1597.8962 2658.6536 1597.2883L2658.6536 1597.2883L2668.751 1591.8627L2674.589 1588.7256L2684.6865 1583.2999C 2686.998 1582.0974 2687.9084 1579.2565 2686.7263 1576.9344L2686.7263 1576.9344L2686.0754 1575.7053C 2684.8867 1573.5305 2682.2053 1572.6647 2679.9697 1573.7338C 2679.8762 1573.7766 2679.7822 1573.8173 2679.6904 1573.8666L2679.6904 1573.8666L2653.6575 1587.855z" stroke="none" fill="#FEBD57" fill-rule="nonzero" />
    <path d="M2384.9805 1850.5377C 2380.3848 1873.5912 2358.6724 2050.9578 2348.7527 2117.0532C 2338.845 2183.1611 2336.2024 2325.2722 2339.5088 2408.565C 2342.803 2491.8574 2309.0977 2588.3643 2309.0977 2588.3643L2309.0977 2588.3643L2163.68 2602.2422C 2163.68 2602.2422 2162.3154 2588.524 2160.0415 2565.5374C 2247.1936 2568.8193 2293.462 2354.6387 2286.984 2229.749C 2280.4937 2104.8596 2316.178 1973.4795 2337.2593 1897.2427C 2358.353 1821.0183 2384.9805 1850.5377 2384.9805 1850.5377z" stroke="none" fill="#20307B" fill-rule="nonzero" />
    <path transform="matrix(0.81690335 -0.5767746 0.5767746 0.81690335 -457.68457 1807.7377)"  d="M2592.426 1462.344L2644.462 1462.344L2644.462 1787.15L2592.426 1787.15z" stroke="none" fill="#FEBD57" fill-rule="nonzero" />
    <path transform="matrix(0.81690335 -0.5767746 0.5767746 0.81690335 -451.5127 1812.4166)"  d="M2615.68 1454.962L2642.118 1454.962L2642.118 1779.7681L2615.68 1779.7681z" stroke="none" fill="#FF8C3E" fill-rule="nonzero" />
    <path transform="matrix(0.81690335 -0.5767746 0.5767746 0.81690335 -402.82837 1748.1935)"  d="M2538.867 1506.057L2565.305 1506.057L2565.305 1511.088L2538.867 1511.088z" stroke="none" fill="#313B47" fill-rule="nonzero" />
    <path transform="matrix(0.81690335 -0.5767746 0.5767746 0.81690335 -408.1421 1755.2026)"  d="M2547.251 1517.931L2573.689 1517.931L2573.689 1522.962L2547.251 1522.962z" stroke="none" fill="#313B47" fill-rule="nonzero" />
    <path transform="matrix(0.81690335 -0.5767746 0.5767746 0.81690335 -413.45483 1762.2123)"  d="M2555.634 1529.805L2582.072 1529.805L2582.072 1534.836L2555.634 1534.836z" stroke="none" fill="#313B47" fill-rule="nonzero" />
    <path transform="matrix(0.81690335 -0.5767746 0.5767746 0.81690335 -418.76855 1769.2216)"  d="M2564.018 1541.679L2590.456 1541.679L2590.456 1546.71L2564.018 1546.71z" stroke="none" fill="#313B47" fill-rule="nonzero" />
    <path transform="matrix(0.81690335 -0.5767746 0.5767746 0.81690335 -424.08398 1776.2472)"  d="M2572.401 1553.552L2598.8389 1553.552L2598.8389 1558.583L2572.401 1558.583z" stroke="none" fill="#313B47" fill-rule="nonzero" />
    <path transform="matrix(0.81690335 -0.5767746 0.5767746 0.81690335 -429.39746 1783.257)"  d="M2580.785 1565.426L2607.223 1565.426L2607.223 1570.457L2580.785 1570.457z" stroke="none" fill="#313B47" fill-rule="nonzero" />
    <path transform="matrix(0.81690335 -0.5767746 0.5767746 0.81690335 -434.70972 1790.2501)"  d="M2589.168 1577.3L2615.606 1577.3L2615.606 1582.331L2589.168 1582.331z" stroke="none" fill="#313B47" fill-rule="nonzero" />
    <path transform="matrix(0.81690335 -0.5767746 0.5767746 0.81690335 -440.0232 1797.2593)"  d="M2597.552 1589.174L2623.99 1589.174L2623.99 1594.205L2597.552 1594.205z" stroke="none" fill="#313B47" fill-rule="nonzero" />
    <path transform="matrix(0.81690335 -0.5767746 0.5767746 0.81690335 -445.33618 1804.2689)"  d="M2605.935 1601.047L2632.373 1601.047L2632.373 1606.078L2605.935 1606.078z" stroke="none" fill="#313B47" fill-rule="nonzero" />
    <path transform="matrix(0.81690335 -0.5767746 0.5767746 0.81690335 -450.6499 1811.2782)"  d="M2614.319 1612.921L2640.757 1612.921L2640.757 1617.952L2614.319 1617.952z" stroke="none" fill="#313B47" fill-rule="nonzero" />
    <path transform="matrix(0.81690335 -0.5767746 0.5767746 0.81690335 -455.9651 1818.3043)"  d="M2622.702 1624.795L2649.14 1624.795L2649.14 1629.826L2622.702 1629.826z" stroke="none" fill="#313B47" fill-rule="nonzero" />
    <path transform="matrix(0.81690335 -0.5767746 0.5767746 0.81690335 -461.27637 1825.2969)"  d="M2631.085 1636.669L2657.523 1636.669L2657.523 1641.7L2631.085 1641.7z" stroke="none" fill="#313B47" fill-rule="nonzero" />
    <path transform="matrix(0.81690335 -0.5767746 0.5767746 0.81690335 -466.5901 1832.306)"  d="M2639.469 1648.543L2665.907 1648.543L2665.907 1653.574L2639.469 1653.574z" stroke="none" fill="#313B47" fill-rule="nonzero" />
    <path transform="matrix(0.81690335 -0.5767746 0.5767746 0.81690335 -471.9038 1839.3153)"  d="M2647.852 1660.416L2674.29 1660.416L2674.29 1665.447L2647.852 1665.447z" stroke="none" fill="#313B47" fill-rule="nonzero" />
    <path transform="matrix(0.81690335 -0.5767746 0.5767746 0.81690335 -477.21753 1846.3252)"  d="M2656.236 1672.29L2682.674 1672.29L2682.674 1677.321L2656.236 1677.321z" stroke="none" fill="#313B47" fill-rule="nonzero" />
    <path transform="matrix(0.81690335 -0.5767746 0.5767746 0.81690335 -482.531 1853.335)"  d="M2664.619 1684.164L2691.057 1684.164L2691.057 1689.195L2664.619 1689.195z" stroke="none" fill="#313B47" fill-rule="nonzero" />
    <path transform="matrix(0.81690335 -0.5767746 0.5767746 0.81690335 -487.84424 1860.3438)"  d="M2673.003 1696.038L2699.441 1696.038L2699.441 1701.069L2673.003 1701.069z" stroke="none" fill="#313B47" fill-rule="nonzero" />
    <path transform="matrix(0.81690335 -0.5767746 0.5767746 0.81690335 -493.1577 1867.3535)"  d="M2681.386 1707.911L2707.824 1707.911L2707.824 1712.942L2681.386 1712.942z" stroke="none" fill="#313B47" fill-rule="nonzero" />
    <path transform="matrix(0.81690335 -0.5767746 0.5767746 0.81690335 -498.47095 1874.3627)"  d="M2689.77 1719.785L2716.208 1719.785L2716.208 1724.816L2689.77 1724.816z" stroke="none" fill="#313B47" fill-rule="nonzero" />
    <path transform="matrix(0.81690335 -0.5767746 0.5767746 0.81690335 -503.78442 1881.3718)"  d="M2698.153 1731.659L2724.591 1731.659L2724.591 1736.6901L2698.153 1736.6901z" stroke="none" fill="#313B47" fill-rule="nonzero" />
    <path d="M2678.036 1790.6741C 2670.0713 1790.9504 2662.3281 1788.0234 2656.5378 1782.5476L2656.5378 1782.5476L2506.8215 1638.043C 2502.3481 1633.7219 2495.8855 1632.162 2489.9333 1633.9667C 2484.5508 1635.5923 2480.8503 1636.3967 2478.2966 1636.4772C 2462.5269 1636.9453 2447.2563 1630.92 2436.0552 1619.8102C 2424.8164 1608.6823 2418.7185 1593.3773 2419.2256 1577.5696C 2419.279 1575.5918 2420.3489 1573.7814 2422.0554 1572.7804C 2423.867 1571.7089 2426.1006 1571.6385 2427.976 1572.5939L2427.976 1572.5939L2459.89 1590.4C 2469.17 1585.2723 2475.2 1575.7719 2475.89 1565.1919L2475.89 1565.1919L2440.2415 1545.2909C 2438.5994 1544.3881 2437.5059 1542.7358 2437.3167 1540.8716C 2437.1274 1539.0073 2437.8667 1537.1691 2439.294 1535.9547C 2448.815 1527.6263 2460.845 1522.7164 2473.4744 1522.0045C 2487.5986 1521.307 2501.57 1526.6788 2512.8745 1537.2704C 2527.3687 1550.8684 2533.6184 1569.1277 2530.9666 1590.1094C 2530.2273 1595.6837 2532.2466 1601.269 2536.3792 1605.082L2536.3792 1605.082L2690.7183 1746.0364C 2696.526 1751.513 2699.9395 1759.0588 2700.2188 1767.0365C 2700.6096 1779.6852 2690.684 1790.2615 2678.036 1790.6741z" stroke="none" fill="#1A4EA2" fill-rule="nonzero" />
    <path d="M2673.9646 1792.0394C 2666 1792.3157 2658.2568 1789.3885 2652.4666 1783.9125L2652.4666 1783.9125L2502.7502 1639.408C 2498.2769 1635.0868 2491.814 1633.5269 2485.862 1635.3319C 2480.4795 1636.9572 2476.779 1637.7616 2474.2253 1637.8422C 2458.4558 1638.3104 2443.185 1632.2852 2431.984 1621.1752C 2420.745 1610.0474 2414.6472 1594.7426 2415.1543 1578.9349C 2415.208 1576.957 2416.2776 1575.1466 2417.9841 1574.1458C 2419.7957 1573.0741 2422.0295 1573.0037 2423.905 1573.9591L2423.905 1573.9591L2455.8188 1591.765C 2465.0989 1586.6375 2471.129 1577.1371 2471.8188 1566.557L2471.8188 1566.557L2436.1704 1546.6559C 2434.5286 1545.7532 2433.4353 1544.1011 2433.246 1542.2368C 2433.057 1540.3726 2433.796 1538.5344 2435.223 1537.3201C 2444.744 1528.9915 2456.7737 1524.0815 2469.4033 1523.3695C 2483.5276 1522.6724 2497.499 1528.0442 2508.8035 1538.6359C 2523.2976 1552.2335 2529.5474 1570.493 2526.8955 1591.4745C 2526.1562 1597.0488 2528.1753 1602.6344 2532.308 1606.4476L2532.308 1606.4476L2686.6472 1747.4016C 2692.4548 1752.8783 2695.8684 1760.4241 2696.1477 1768.4016C 2696.5386 1781.0504 2686.613 1791.627 2673.9646 1792.0394z" stroke="none" fill="#B6C7FF" fill-rule="nonzero" />
    <path d="M2530.862 1624.747L2647.199 1728.971L2632.523 1744.054L2518.565 1637.571L2530.862 1624.747L2530.862 1624.747" stroke="none" fill="#FFFFFF" fill-rule="nonzero" />
    <path d="M2767.855 1716.6868C 2765.06 1736.256 2706.9749 1774.8784 2687.8313 1789.2974C 2683.6528 1792.2743 2678.6746 1793.9233 2673.5454 1794.0297C 2653.7476 1795.1116 2628.659 1780.8401 2624.2556 1780.0288C 2618.6765 1778.9962 2600.0876 1788.7809 2584.7593 1799.0819C 2569.4202 1809.3828 2470.896 1801.6632 2455.1018 1793.9315C 2439.2966 1786.2119 2434.1838 1684.2351 2434.1838 1662.6006C 2434.1838 1640.9661 2442.5466 1647.149 2442.5466 1647.149C 2457.42 1658.4827 2575.3315 1658.9989 2575.3315 1658.9989C 2575.3315 1658.9989 2609.382 1657.9663 2612.6318 1658.4825C 2615.8926 1658.9989 2633.0842 1656.9337 2645.6284 1653.332C 2658.1838 1649.7305 2660.5017 1651.7831 2671.1938 1652.8158C 2681.8748 1653.8483 2719.033 1592.5535 2724.1462 1571.4353C 2729.259 1550.3173 2720.7458 1544.1938 2720.7458 1544.1938C 2725.3818 1543.1614 2756.6968 1549.8064 2762.2756 1566.8066C 2767.855 1583.7949 2770.639 1697.1052 2767.855 1716.6868z" stroke="none" fill="#6192DE" fill-rule="nonzero" />
    <path d="M2673.5454 1794.0297C 2653.7476 1795.1116 2628.659 1780.8401 2624.2556 1780.0288C 2618.6765 1778.9962 2600.0876 1788.7809 2584.7593 1799.0819L2584.7593 1799.0819L2575.3318 1658.999C 2575.3318 1658.999 2609.3823 1657.9664 2612.632 1658.4827C 2615.8928 1658.999 2633.0845 1656.9338 2645.6287 1653.3322C 2658.184 1649.7306 2660.502 1651.7832 2671.194 1652.8159L2671.194 1652.8159L2673.5454 1794.0297z" stroke="none" fill="#1A4EA2" fill-rule="nonzero" fill-opacity="0.25882354" />
    <path d="M2612.632 1658.4828C 2612.632 1658.4828 2622.8333 1742.3302 2624.2559 1780.0289" stroke="#1A4EA2" stroke-width="1" fill="none" />
    <path d="M2195.6929 2588.6255C 2195.6929 2588.6255 2198.5652 2669.5247 2184.6072 2685.2715C 2170.6492 2701.0183 2224.623 2733.876 2243.151 2724.4873C 2261.6787 2715.0986 2268.7295 2713.2124 2268.7295 2713.2124C 2268.7295 2713.2124 2259.6565 2655.4116 2266.9219 2611.569C 2274.1873 2567.7266 2195.6929 2588.6255 2195.6929 2588.6255z" stroke="none" fill="#FFC890" fill-rule="nonzero" />
    <path d="M2297.5073 2762.0789C 2297.4678 2766.4543 2296.6658 2770.7893 2295.1375 2774.8894L2295.1375 2774.8894L2000.7064 2779.0627C 2000.7064 2779.0627 1993.2347 2776.6743 1990.3445 2763.873C 1989.5898 2760.3586 1989.2157 2756.7732 1989.2284 2753.1785C 1989.0983 2730.9116 2099.613 2710.5308 2136.1182 2694.6238C 2183.3054 2674.069 2179.9949 2686.499 2179.9949 2686.499C 2179.9949 2686.499 2221.2297 2701.015 2266.943 2685.9912C 2266.943 2685.9912 2283.1387 2659.9165 2294.912 2736.3142C 2294.912 2736.3142 2297.9863 2749.6653 2297.5073 2762.0789z" stroke="none" fill="#454B6B" fill-rule="nonzero" />
    <path d="M2297.5073 2762.0789C 2297.4678 2766.4543 2296.6658 2770.7893 2295.1375 2774.8894L2295.1375 2774.8894L2000.7064 2779.0627C 2000.7064 2779.0627 1993.2347 2776.6743 1990.3445 2763.873L1990.3445 2763.873L2297.5073 2762.0789z" stroke="none" fill="#20307B" fill-rule="nonzero" />
    <path d="M2136.6287 2720.1807C 2143.556 2720.4812 2149.7966 2724.4543 2153 2730.6038C 2156.2034 2736.7532 2155.8828 2744.1445 2152.159 2749.9934C 2148.4353 2755.8423 2141.874 2759.2605 2134.9468 2758.96L2134.9468 2758.96L2136.5913 2760.6045L2136.5913 2760.6045L2136.5913 2773.4736C 2459.5735 2410.2021 2726.314 2116.1384 2732.3726 2116.6636C 2738.4316 2117.189 2481.5144 2412.1045 2158.5322 2775.376C 2136.702 2720.1794 2136.6648 2720.1804 2136.6287 2720.1807zM2108.7346 2724.5056C 2107.9688 2712.9834 2102.806 2708.1035 2102.7534 2708.0557C 2103.1287 2707.5254 2103.7827 2707.268 2104.4187 2707.4004C 2105.0547 2707.533 2105.5515 2708.0298 2105.684 2708.6658C 2105.8164 2709.3018 2105.559 2709.9558 2105.0288 2710.331C 2105.2842 2710.5593 2111.2915 2716.0771 2112.1526 2729.0522C 2108.8076 2724.5044 2108.7708 2724.5054 2108.7346 2724.5056zM2164.8853 2712.6577C 2163.7368 2693.1716 2151.0576 2692.5498 2150.93 2692.5464C 2151.9814 2692.515 2152.8604 2693.3396 2152.8965 2694.3909C 2152.9324 2695.4421 2152.1116 2696.3247 2151.0603 2696.365C 2150.0093 2696.4055 2149.123 2695.5884 2149.0784 2694.5374C 2149.7544 2694.5586 2165.6516 2695.316 2166.9893 2718.0344C 2164.9495 2712.6567 2164.9172 2712.6577 2164.8853 2712.6577z" stroke="none" fill="#FFFFFF" fill-rule="nonzero" />
    <path d="M2662.6145 2588.6255C 2662.6145 2588.6255 2665.4868 2669.5247 2651.5288 2685.2715C 2637.5708 2701.0183 2691.5447 2733.876 2710.0725 2724.4873C 2728.6003 2715.0986 2735.6511 2713.2124 2735.6511 2713.2124C 2735.6511 2713.2124 2726.5781 2655.4116 2733.8435 2611.569C 2741.109 2567.7266 2662.6145 2588.6255 2662.6145 2588.6255z" stroke="none" fill="#FFC890" fill-rule="nonzero" />
    <path d="M2764.4287 2762.0789C 2764.3892 2766.4543 2763.5872 2770.7893 2762.0588 2774.8894L2762.0588 2774.8894L2467.628 2779.0627C 2467.628 2779.0627 2460.1562 2776.6743 2457.266 2763.873C 2456.5115 2760.3586 2456.1372 2756.7732 2456.15 2753.1785C 2456.0198 2730.9116 2566.5347 2710.5308 2603.0398 2694.6238C 2650.227 2674.069 2646.9165 2686.499 2646.9165 2686.499C 2646.9165 2686.499 2688.1514 2701.015 2733.8647 2685.9912C 2733.8647 2685.9912 2750.0605 2659.9165 2761.8337 2736.3142C 2761.8337 2736.3142 2764.908 2749.6653 2764.4287 2762.0789z" stroke="none" fill="#454B6B" fill-rule="nonzero" />
    <path d="M2764.4287 2762.0789C 2764.3892 2766.4543 2763.5872 2770.7893 2762.0588 2774.8894L2762.0588 2774.8894L2467.628 2779.0627C 2467.628 2779.0627 2460.1562 2776.6743 2457.266 2763.873L2457.266 2763.873L2764.4287 2762.0789z" stroke="none" fill="#20307B" fill-rule="nonzero" />
    <path d="M2603.5503 2720.1807C 2610.4778 2720.4812 2616.7185 2724.4543 2619.9219 2730.6038C 2623.1252 2736.7532 2622.8047 2744.1445 2619.0808 2749.9934C 2615.3572 2755.8423 2608.796 2759.2605 2601.8684 2758.96L2601.8684 2758.96L2603.513 2760.6045L2603.513 2760.6045L2603.513 2773.4736C 2926.492 2410.2017 3193.2297 2116.1372 3199.2886 2116.6626C 3205.3472 2117.188 2948.4329 2412.104 2625.4539 2775.376C 2603.6233 2720.1794 2603.5864 2720.1804 2603.5503 2720.1807zM2575.656 2724.5056C 2574.8901 2712.9834 2569.7273 2708.1035 2569.6748 2708.0557C 2570.05 2707.5254 2570.704 2707.268 2571.34 2707.4004C 2571.976 2707.533 2572.473 2708.0298 2572.6055 2708.6658C 2572.7378 2709.3018 2572.4805 2709.9558 2571.9502 2710.331C 2572.2056 2710.5593 2578.213 2716.0771 2579.074 2729.0522C 2575.7292 2724.5044 2575.6924 2724.5054 2575.656 2724.5056zM2631.8066 2712.6577C 2630.6582 2693.1716 2617.979 2692.5498 2617.8513 2692.5464C 2618.9028 2692.515 2619.7817 2693.3396 2619.8179 2694.3909C 2619.8538 2695.4421 2619.033 2696.3247 2617.9817 2696.365C 2616.9307 2696.4055 2616.0444 2695.5884 2615.9998 2694.5374C 2616.676 2694.5586 2632.573 2695.316 2633.9106 2718.0344C 2631.871 2712.6567 2631.8389 2712.6577 2631.8066 2712.6577z" stroke="none" fill="#FFFFFF" fill-rule="nonzero" />
    <path d="M2157.615 1288.324L2361.036 1194.995L2366.926 1206.321L2164.3 1297.838L2157.615 1288.324L2157.615 1288.324" stroke="none" fill="#FFFFFF" fill-rule="nonzero" />
    <path d="M2789.7998 1458.3813C 2736.6355 1510.8077 2381.6714 1453.1448 2318.022 1397.7311C 2302.9202 1393.5706 2288.1018 1388.4423 2273.659 1382.378C 2261.084 1376.9573 2248.8286 1370.4176 2241.4656 1363.2758C 2229.456 1351.6227 2213.6357 1335.9377 2205.2896 1320.8796C 2199.684 1310.8 2197.4468 1301.0032 2201.9458 1292.8901C 2201.9458 1292.8901 2195.2097 1275.1648 2209.444 1264.1879C 2209.444 1264.1879 2210.8945 1239.9352 2225.9158 1237.4767C 2240.9246 1235.0183 2267.353 1233.666 2273.2163 1240.4391C 2279.0796 1247.2122 2341.242 1339.3182 2356.9639 1342.3176C 2372.6858 1345.3047 2590.05 1338.679 2611.3035 1333.0125L2611.3035 1333.0125L2591.685 1258.0049L2586.0674 1236.5303C 2586.0674 1236.5303 2636.011 1142.8262 2758.5898 1177.0477C 2758.5898 1177.0477 2763.9614 1191.6143 2771.1401 1214.2441C 2792.4058 1281.3109 2829.553 1419.1934 2789.7998 1458.3813z" stroke="none" fill="#FFC890" fill-rule="nonzero" />
    <path d="M2273.659 1379.7866C 2261.084 1374.3658 2248.8286 1367.8262 2241.4656 1360.6843C 2229.456 1349.0312 2213.6357 1333.3463 2205.2896 1318.2882C 2215.4673 1315.5963 2236.487 1311.4415 2245.5588 1319.9847C 2254.2249 1328.1344 2266.9844 1361.2499 2273.659 1379.7866z" stroke="none" fill="#FF8C5A" fill-rule="nonzero" fill-opacity="0.54901963" />
    <path d="M2611.2976 1330.416C 2611.2976 1330.416 2667.3596 1324.8147 2691.8857 1337.1359C 2716.4119 1349.457 2683.4626 1317.2563 2666.239 1311.2656C 2649.0154 1305.2749 2606.2896 1311.2656 2606.2896 1311.2656L2606.2896 1311.2656L2611.2976 1330.416zM2771.1401 1211.6526C 2748.7437 1203.8348 2714.9644 1194.5419 2681.9595 1198.9425C 2637.4246 1204.8796 2603.7192 1240.7979 2591.685 1255.4133L2591.685 1255.4133L2586.0674 1233.9387C 2586.0674 1233.9387 2636.011 1140.2346 2758.5898 1174.4562C 2758.5896 1174.4562 2763.9612 1189.0227 2771.1401 1211.6526zM2201.9585 1290.049C 2214.1338 1277.8737 2231.8796 1273.1188 2248.5115 1277.5752C 2265.143 1282.0316 2278.1338 1295.0225 2282.5903 1311.6542C 2287.0469 1328.2859 2282.2917 1346.0316 2270.1165 1358.2069L2270.1165 1358.2069L2270.1165 1469.8232C 2271.059 1470.2529 2272.003 1470.6117 2272.937 1471.1333C 2273.4026 1471.395 2273.8552 1471.623 2274.3174 1471.9113C 2274.7734 1472.2355 2275.221 1472.5236 2275.631 1472.8701L2275.631 1472.8701L2275.4873 1473.3491L2275.631 1472.8701L2275.4873 1473.3491C 2274.5356 1473.2012 2273.5708 1473.1099 2272.6091 1473.0054C 2270.6877 1472.7833 2268.761 1472.589 2266.8286 1472.4224C 2262.9685 1472.0753 2259.0994 1471.7998 2255.2295 1471.5415L2255.2295 1471.5415L2243.6238 1470.6748L2237.8171 1470.2817L2232.0132 1469.8384zM2209.432 1261.3469C 2223.8228 1246.9563 2244.7974 1241.3362 2264.4553 1246.6035C 2284.1133 1251.8708 2299.468 1267.2255 2304.7354 1286.8834C 2310.0027 1306.5414 2304.3823 1327.5161 2289.9917 1341.9067L2289.9917 1341.9067L2289.9917 1455.3528C 2290.5442 1455.5725 2291.0916 1455.7878 2291.6433 1456.0364C 2292.172 1456.317 2292.712 1456.6731 2293.2156 1457.01L2293.2156 1457.01L2293.9446 1457.6316L2293.2156 1457.01L2293.9446 1457.6316L2293.6416 1458.029L2293.2156 1457.01L2293.9446 1457.6316L2293.6416 1458.029C 2292.577 1457.8005 2291.4849 1457.6648 2290.3953 1457.5417C 2288.2148 1457.2815 2286.0164 1457.1267 2283.816 1457.013C 2279.4126 1456.7971 2274.9973 1456.7512 2270.5833 1456.7634C 2266.1687 1456.7297 2261.7527 1456.7544 2257.3352 1456.8372L2257.3352 1456.8372L2244.0852 1457.1292z" stroke="none" fill="#FF8C5A" fill-rule="nonzero" />
    <path d="M2243.371 1366.032L2102.919 1388.219L2024.162 1260.982L1986.708 1213.177L1933.937 1145.84L1941.116 1137.174L2085.255 1137.174L2195.001 1296.027L2243.371 1366.032L2243.371 1366.032" stroke="none" fill="#D03E48" fill-rule="nonzero" />
    <path d="M2243.371 1366.032L2231.054 1366.032L2182.843 1295.572L2080.412 1145.84L1933.937 1145.84L1941.116 1137.174L2085.255 1137.174L2195.001 1296.027L2243.371 1366.032L2243.371 1366.032" stroke="none" fill="#AA0515" fill-rule="nonzero" />
    <path d="M2243.3708 1366.0316L2102.919 1388.2192L2024.1625 1260.9817L1986.708 1213.1769C 1986.708 1213.1769 2094.1548 1288.9957 2182.8435 1295.572C 2186.937 1295.8793 2190.9934 1296.0393 2195.0007 1296.027L2195.0007 1296.027L2243.3708 1366.0316z" stroke="none" fill="#AA0515" fill-rule="nonzero" fill-opacity="0.36862746" />
    <path d="M2271.9136 1427.5299C 2265.9395 1436.491 2242.215 1450.1353 2225.1292 1456.1095C 2208.0427 1462.0834 2188.4858 1451.131 2188.4858 1451.131C 2188.4858 1451.131 2141.7258 1465.0704 2114.4617 1470.0366C 2087.1975 1475.0149 2030.284 1462.0834 2016.3569 1432.2255C 2004.04 1405.8585 2017.0331 1292.3761 2020.2291 1266.3286L2020.2291 1266.3286L2020.2291 1266.3163C 2020.647 1262.8868 2020.8927 1260.9816 2020.8927 1260.9816L2020.8927 1260.9816L2106.7666 1363.2411C 2106.7666 1363.2411 2106.8281 1363.2534 2106.9512 1363.2657L2106.9512 1363.2657L2147.0237 1368.5514C 2147.0237 1368.5514 2147.6875 1352.6328 2158.64 1339.9227C 2169.58 1327.2123 2166.458 1303.8939 2180.7168 1300.2554C 2194.8037 1296.6782 2185.7444 1349.2401 2185.511 1350.6168C 2185.9902 1349.8057 2201.7737 1322.8116 2225.129 1324.2622C 2248.8408 1325.7372 2241.4653 1356.6154 2241.4653 1356.6154C 2261.6245 1359.5902 2258.1335 1378.4956 2258.1335 1378.4956C 2278.035 1380.487 2268.3608 1404.3708 2268.3608 1404.3708C 2268.3608 1404.3708 2277.8875 1418.581 2271.9136 1427.5299z" stroke="none" fill="#FFC890" fill-rule="nonzero" />
    <path d="M2188.485 1451.1348C 2188.485 1451.1348 2156.4722 1424.2004 2153.1138 1404.4702C 2149.7554 1384.74 2144.8433 1437.0411 2175.2156 1454.9689L2175.2156 1454.9689L2188.485 1451.1348zM2241.5432 1356.7415C 2240.3252 1357.7004 2239.013 1358.4924 2237.7485 1359.3684C 2236.45 1360.1848 2235.125 1360.9534 2233.811 1361.7415C 2232.4524 1362.4514 2231.114 1363.1965 2229.7388 1363.8762C 2228.3364 1364.508 2226.9766 1365.2141 2225.5266 1365.762L2225.5266 1365.762L2225.3794 1365.5002C 2230.6536 1362.3792 2236.0073 1359.3987 2241.3186 1356.343C 2246.6821 1353.3801 2252.0037 1350.343 2257.4045 1347.4465zM2258.2146 1378.6267C 2256.9724 1379.7097 2255.6267 1380.6306 2254.3364 1381.6365C 2253.0076 1382.5828 2251.6523 1383.487 2250.3103 1384.4109C 2248.9194 1385.2595 2247.552 1386.1443 2246.1472 1386.9695C 2244.7112 1387.7488 2243.327 1388.6041 2241.845 1389.3123L2241.845 1389.3123L2241.6602 1389.0759C 2244.2407 1387.0554 2246.9414 1385.2185 2249.647 1383.3884L2249.647 1383.3884L2257.7988 1377.9558L2266.0474 1372.6746C 2268.796 1370.9119 2271.5635 1369.1794 2274.3496 1367.4774zM2268.4414 1404.4958C 2280.915 1392.3727 2300.5928 1391.816 2313.7317 1403.2146C 2326.8708 1414.613 2329.0972 1434.1725 2318.8562 1448.2324C 2308.6152 1462.2922 2289.3157 1466.1724 2274.4365 1457.1628L2274.4365 1457.1628L2330.525 1513.2511L2330.525 1513.2511L2364.3901 1513.2511L2268.4414 1404.4958L2364.2266 1513.0002C 2368.5835 1510.0071 2373.0286 1507.1487 2377.4268 1504.219C 2381.883 1501.3782 2386.2925 1498.4651 2390.7905 1495.6887zM2106.7666 1363.2412C 2106.7666 1363.2412 2058.0156 1366.2281 2036.467 1365.6381C 2014.9309 1365.0481 2086.804 1353.8008 2083.3743 1344.9993C 2079.957 1336.1981 2020.2289 1266.3286 2020.2289 1266.3286L2020.2289 1266.3286L2020.2289 1266.3163C 2020.6467 1262.8868 2021.1705 1257.161 2021.1705 1257.161z" stroke="none" fill="#FF8C5A" fill-rule="nonzero" />
    <path d="M2153.3926 2572.396C 2153.3926 2572.396 2148.2847 2620.9219 2164.8855 2626.0298C 2181.4863 2631.1377 2304.0781 2646.4617 2313.6555 2619.0063C 2323.233 2591.551 2328.3408 2561.5415 2306.632 2564.7341C 2284.9233 2567.9268 2155.308 2548.7715 2153.3926 2572.396zM2606.007 2581.7622C 2606.007 2581.7622 2612.2852 2630.1504 2629.618 2631.2717C 2646.9507 2632.393 2769.7559 2618.8865 2772.7092 2589.959C 2775.6626 2561.0315 2773.676 2530.6553 2753.2983 2538.7922C 2732.9207 2546.9292 2602.395 2558.337 2606.007 2581.7622z" stroke="none" fill="#1A4EA2" fill-rule="nonzero" />
    <path d="M1898.677 796.753L2005.767 796.753L2005.767 989.294L1898.677 989.294z" stroke="none" fill="#CCD5FF" fill-rule="nonzero" />
    <path d="M1892.278 787.72L1999.3679 787.72L1999.3679 980.261L1892.278 980.261z" stroke="none" fill="#F2F4FF" fill-rule="nonzero" />
    <path d="M2281.992 875.8312C 2287.4844 880.21875 2294.5256 882.1826 2301.4958 881.27106C 2316.9143 879.19006 2326.6792 875.18713 2333.069 867.40735C 2336.1746 863.4698 2338.51 858.9819 2339.9526 854.17883C 2339.9526 854.17883 2341.5747 848.3253 2338.7324 846.2786C 2337.7915 845.6048 2336.3691 845.3466 2334.2454 845.84204C 2325.6914 847.85846 2278.279 855.88403 2272.2498 856.37067C 2268.309 856.6908 2272.4072 868.5182 2281.992 875.8312z" stroke="none" fill="#BD3132" fill-rule="nonzero" />
    <path d="M2272.2498 856.3707C 2274.3667 858.87683 2279.447 861.47815 2285.0312 862.41815C 2290.6304 863.36395 2327.7856 854.74023 2332.205 853.5848C 2336.6245 852.4293 2338.7324 846.27875 2338.7324 846.27875C 2337.7915 845.6049 2336.3691 845.34674 2334.2454 845.84216C 2325.6914 847.8585 2278.2793 855.8841 2272.2498 856.3707z" stroke="none" fill="#F9FFFF" fill-rule="nonzero" />
    <path d="M2281.992 875.8312C 2287.4844 880.21875 2294.5256 882.1826 2301.4958 881.27106C 2316.9143 879.19006 2326.6792 875.18713 2333.069 867.40735C 2323.515 866.3155 2303.027 865.6824 2281.992 875.8312z" stroke="none" fill="#FF767B" fill-rule="nonzero" />
    <path d="M3226.4468 2477.5464L3054.0295 2477.5464C 3045.6726 2477.5464 3038.835 2483.9338 3038.835 2491.741L3038.835 2491.741L3038.835 2562.7395C 3038.835 2570.5466 3045.6726 2576.934 3054.0295 2576.934L3054.0295 2576.934L3069.204 2576.934L3054.0295 2576.934L3069.204 2576.934L3069.204 2517.0276C 3069.204 2509.2207 3076.0417 2502.833 3084.3987 2502.833L3084.3987 2502.833L3206.9458 2502.833C 3215.3027 2502.833 3222.1404 2509.2207 3222.1404 2517.0276L3222.1404 2517.0276L3222.1404 2576.934L3222.1404 2517.0276L3222.1404 2576.934L3233.9897 2576.934C 3242.3472 2576.934 3249.1843 2570.5466 3249.1843 2562.7395L3249.1843 2562.7395L3249.1843 2491.741C 3241.6416 2483.9336 3234.8042 2477.5464 3226.4468 2477.5464zM3295.741 2771.5981L2983.9382 2771.5981L3295.741 2771.5981L2983.9382 2771.5981L2971.0767 2668.435C 2969.1392 2652.894 2980.9556 2639.1401 2996.245 2639.1401L2996.245 2639.1401L3331.9966 2639.1401C 3347.1094 2639.1401 3358.8716 2652.5933 3357.217 2667.9866L3357.217 2667.9866L3346.1296 2771.1497L3357.217 2667.9866L3346.1296 2771.1497z" stroke="none" fill="#20307B" fill-rule="nonzero" />
    <path d="M3340.9077 2634.171L2932.9194 2634.171L2932.9194 2560.595C 2932.9194 2550.0151 2941.496 2541.4385 2952.076 2541.4385L2952.076 2541.4385L3321.751 2541.4385C 3332.3306 2541.4385 3340.9072 2550.0151 3340.9075 2560.595L3340.9075 2560.595L3340.9077 2634.171z" stroke="none" fill="#FEBD57" fill-rule="nonzero" />
    <path d="M3356.1106 2624.7153L3355.2622 2621.1277L3282.4517 2621.1277L3282.4517 2605.549L3351.5776 2605.549L3348.4578 2592.3572C 3347.1233 2587.3538 3342.538 2583.9133 3337.361 2584.0312L3337.361 2584.0312L2939.027 2584.0312C 2933.7156 2583.9026 2929.0461 2587.528 2927.8545 2592.7058L2927.8545 2592.7058L2925.2969 2605.5493L2978.2769 2605.5493L2978.2769 2621.128L2922.1938 2621.128L2921.4104 2625.0642C 2920.11 2631.593 2925.4736 2637.6223 2932.583 2637.6223L2932.583 2637.6223L2978.2769 2637.6223L2978.2769 2654.248C 2978.2769 2664.4788 2987.1553 2672.773 2998.107 2672.773L2998.107 2672.773L3030.4883 2672.773C 3041.4402 2672.773 3050.3184 2664.479 3050.3184 2654.248L3050.3184 2654.248L3050.3184 2637.6223L3210.4106 2637.6223L3210.4106 2654.248C 3210.4106 2664.4788 3219.289 2672.773 3230.2407 2672.773L3230.2407 2672.773L3262.622 2672.773C 3273.574 2672.773 3282.4521 2664.479 3282.4521 2654.248L3282.4521 2654.248L3282.4521 2637.6223L3345.0142 2637.6223C 3352.2786 2637.6218 3357.6777 2631.3418 3356.1106 2624.7153zM3050.318 2621.1277L3050.318 2605.549L3210.4104 2605.549L3210.4104 2621.1277z" stroke="none" fill="#1A4EA2" fill-rule="nonzero" />
    <path d="M2988.015 2541.438L3306.2358 2541.438L3306.2358 2555.636L2988.015 2555.636z" stroke="none" fill="#1A4EA2" fill-rule="nonzero" />
  </g>
</svg>
