<svg width="323" height="55" viewBox="0 0 323 55" fill="none" xmlns="http://www.w3.org/2000/svg">
<ellipse cx="294.645" cy="27.0938" rx="27.7711" ry="27.0938" fill="#FEFD00"/>
<circle cx="93.9738" cy="27.2124" r="27.2124" fill="#FEFD00"/>
<path d="M93.611 23.2301C91.2183 23.2301 89.2656 25.1827 89.2656 27.5754C89.2656 29.9681 91.2183 31.9208 93.611 31.9208C96.0037 31.9208 97.9563 29.9681 97.9563 27.5754C97.9563 25.1827 96.0037 23.2301 93.611 23.2301ZM106.644 27.5754C106.644 25.776 106.66 23.9929 106.559 22.1967C106.458 20.1104 105.982 18.2588 104.456 16.7332C102.928 15.2044 101.079 14.7317 98.9929 14.6306C97.1935 14.5296 95.4104 14.5459 93.6142 14.5459C91.8148 14.5459 90.0317 14.5296 88.2355 14.6306C86.1492 14.7317 84.2977 15.2076 82.7721 16.7332C81.2432 18.2621 80.7705 20.1104 80.6695 22.1967C80.5684 23.9961 80.5847 25.7792 80.5847 27.5754C80.5847 29.3716 80.5684 31.158 80.6695 32.9541C80.7705 35.0404 81.2465 36.892 82.7721 38.4176C84.3009 39.9464 86.1492 40.4191 88.2355 40.5202C90.0349 40.6212 91.8181 40.6049 93.6142 40.6049C95.4137 40.6049 97.1968 40.6212 98.9929 40.5202C101.079 40.4191 102.931 39.9432 104.456 38.4176C105.985 36.8887 106.458 35.0404 106.559 32.9541C106.663 31.158 106.644 29.3748 106.644 27.5754V27.5754ZM93.611 34.2613C89.9111 34.2613 86.9251 31.2753 86.9251 27.5754C86.9251 23.8755 89.9111 20.8895 93.611 20.8895C97.3109 20.8895 100.297 23.8755 100.297 27.5754C100.297 31.2753 97.3109 34.2613 93.611 34.2613ZM100.571 22.1771C99.7068 22.1771 99.0092 21.4795 99.0092 20.6157C99.0092 19.7518 99.7068 19.0542 100.571 19.0542C101.435 19.0542 102.132 19.7518 102.132 20.6157C102.132 20.8208 102.092 21.024 102.014 21.2135C101.935 21.4031 101.82 21.5753 101.675 21.7204C101.53 21.8654 101.358 21.9804 101.169 22.0588C100.979 22.1372 100.776 22.1774 100.571 22.1771V22.1771Z" fill="#1F1F1F"/>
<circle cx="27.2124" cy="27.2124" r="27.2124" fill="#FEFD00"/>
<g clip-path="url(#clip0_248_313)">
<path d="M23.0742 39.6641V28.087H20.1102V23.9186H23.0742V20.3584C23.0742 17.5607 24.825 14.9915 28.8592 14.9915C30.4926 14.9915 31.7004 15.1532 31.7004 15.1532L31.6052 19.0457C31.6052 19.0457 30.3734 19.0333 29.0293 19.0333C27.5745 19.0333 27.3414 19.7257 27.3414 20.875V23.9186H31.7209L31.5303 28.087H27.3414L27.3414 39.6641H23.0742Z" fill="#1F1F1F"/>
</g>
<circle cx="160.735" cy="27.2132" r="27.2124" fill="#FEFD00"/>
<g clip-path="url(#clip1_248_313)">
<path d="M160.825 16.5978H160.983C162.437 16.6031 169.804 16.6561 171.79 17.1903C172.391 17.3534 172.938 17.6711 173.377 18.1119C173.816 18.5527 174.132 19.101 174.293 19.702C174.472 20.3742 174.597 21.2639 174.682 22.1819L174.7 22.3659L174.739 22.8258L174.753 23.0097C174.868 24.6264 174.882 26.1405 174.884 26.4713V26.6039C174.882 26.9471 174.866 28.5638 174.739 30.2477L174.725 30.4334L174.709 30.6174C174.62 31.6291 174.489 32.6338 174.293 33.3732C174.133 33.9745 173.817 34.523 173.378 34.9639C172.938 35.4047 172.391 35.7223 171.79 35.8849C169.738 36.4367 161.94 36.4757 160.859 36.4774H160.608C160.061 36.4774 157.801 36.4668 155.43 36.3854L155.13 36.3748L154.976 36.3678L154.673 36.3554L154.371 36.343C152.408 36.2563 150.538 36.1166 149.676 35.8831C149.076 35.7207 148.529 35.4034 148.089 34.9629C147.65 34.5224 147.334 33.9741 147.174 33.3732C146.977 32.6356 146.846 31.6291 146.758 30.6174L146.744 30.4316L146.73 30.2477C146.642 29.0491 146.594 27.8481 146.585 26.6464V26.4288C146.588 26.0485 146.602 24.7343 146.698 23.2839L146.71 23.1017L146.715 23.0097L146.73 22.8258L146.769 22.3659L146.786 22.1819C146.871 21.2639 146.997 20.3724 147.175 19.702C147.336 19.1007 147.651 18.5522 148.091 18.1113C148.53 17.6705 149.078 17.3529 149.678 17.1903C150.54 16.9604 152.409 16.8189 154.373 16.7304L154.673 16.7181L154.978 16.7074L155.13 16.7021L155.432 16.6898C157.116 16.6356 158.8 16.6055 160.484 16.5995H160.825V16.5978ZM157.905 22.2757V30.7978L165.258 26.5385L157.905 22.2757Z" fill="#1F1F1F"/>
</g>
<circle cx="227.496" cy="27.2124" r="27.2124" fill="#FEFD00"/>
<path d="M237.612 20.8154C234.041 15.3112 226.752 13.6748 221.099 17.0964C215.595 20.5179 213.81 27.9559 217.38 33.4601L217.677 33.9064L216.487 38.3692L220.95 37.1791L221.397 37.4767C223.33 38.518 225.413 39.113 227.496 39.113C229.727 39.113 231.959 38.518 233.892 37.3279C239.397 33.7576 241.033 26.4683 237.612 20.8154V20.8154ZM234.488 32.27C233.892 33.1626 233.149 33.7576 232.107 33.9064C231.512 33.9064 230.768 34.2039 227.793 33.0138C225.264 31.8237 223.182 29.8898 221.694 27.6584C220.801 26.6171 220.355 25.2782 220.206 23.9394C220.206 22.7493 220.653 21.708 221.397 20.9642C221.694 20.6666 221.992 20.5179 222.289 20.5179H223.033C223.33 20.5179 223.628 20.5179 223.777 21.1129C224.074 21.8567 224.818 23.6419 224.818 23.7906C224.967 23.9394 224.967 24.2369 224.818 24.3857C224.967 24.6832 224.818 24.9807 224.669 25.1295C224.521 25.2782 224.372 25.5758 224.223 25.7245C223.925 25.8733 223.777 26.1708 223.925 26.4683C224.521 27.3609 225.264 28.2535 226.008 28.9973C226.901 29.7411 227.793 30.3361 228.835 30.7824C229.132 30.9312 229.43 30.9312 229.578 30.6336C229.727 30.3361 230.471 29.5923 230.768 29.2948C231.066 28.9973 231.215 28.9973 231.512 29.146L233.892 30.3361C234.19 30.4849 234.488 30.6336 234.636 30.7824C234.785 31.2287 234.785 31.8237 234.488 32.27V32.27Z" fill="#1F1F1F"/>
<path d="M305.651 15.4524L282.283 15.4524C281.721 15.4524 281.267 15.8686 281.267 16.3837V37.8047C281.267 38.3199 281.721 38.7361 282.283 38.7361H305.651C306.213 38.7361 306.667 38.3199 306.667 37.8047V16.3837C306.667 15.8686 306.213 15.4524 305.651 15.4524ZM288.801 35.293H285.033V24.1809H288.801V35.293ZM286.919 22.6616C286.487 22.6616 286.064 22.5442 285.705 22.3241C285.346 22.1041 285.066 21.7914 284.9 21.4255C284.735 21.0596 284.692 20.657 284.776 20.2686C284.86 19.8801 285.068 19.5233 285.374 19.2433C285.679 18.9633 286.069 18.7725 286.492 18.6953C286.916 18.618 287.355 18.6577 287.755 18.8092C288.154 18.9608 288.495 19.2174 288.735 19.5467C288.975 19.876 289.103 20.2632 289.103 20.6592C289.1 21.7652 288.122 22.6616 286.919 22.6616ZM302.911 35.293H299.146V29.8883C299.146 28.5989 299.12 26.9429 297.187 26.9429C295.228 26.9429 294.926 28.3457 294.926 29.7951V35.293H291.164V24.1809H294.777V25.7001H294.828C295.329 24.827 296.558 23.9044 298.393 23.9044C302.21 23.9044 302.911 26.2065 302.911 29.1985V35.293V35.293Z" fill="#1F1F1F"/>
<defs>
<clipPath id="clip0_248_313">
<rect width="11.6106" height="24.6726" fill="white" transform="translate(20.1101 14.9915)"/>
</clipPath>
<clipPath id="clip1_248_313">
<rect width="28.3009" height="28.3009" fill="white" transform="translate(146.584 13.0625)"/>
</clipPath>
</defs>
</svg>
