<svg width="55" height="55" viewBox="0 0 55 55" fill="none" xmlns="http://www.w3.org/2000/svg">
<circle cx="27.4964" cy="27.2124" r="27.2124" fill="#FEFD00"/>
<path d="M37.6115 20.8154C34.0412 15.3112 26.7519 13.6748 21.099 17.0964C15.5948 20.5179 13.8097 27.9559 17.38 33.4601L17.6775 33.9064L16.4874 38.3692L20.9502 37.1791L21.3965 37.4767C23.3304 38.518 25.4131 39.113 27.4957 39.113C29.7272 39.113 31.9586 38.518 33.8925 37.3279C39.3966 33.7576 41.033 26.4683 37.6115 20.8154V20.8154ZM34.4875 32.27C33.8925 33.1626 33.1487 33.7576 32.1073 33.9064C31.5123 33.9064 30.7685 34.2039 27.7933 33.0138C25.2643 31.8237 23.1817 29.8898 21.694 27.6584C20.8015 26.6171 20.3552 25.2782 20.2064 23.9394C20.2064 22.7493 20.6527 21.708 21.3965 20.9642C21.694 20.6666 21.9916 20.5179 22.2891 20.5179H23.0329C23.3304 20.5179 23.6279 20.5179 23.7767 21.1129C24.0742 21.8567 24.818 23.6419 24.818 23.7906C24.9668 23.9394 24.9668 24.2369 24.818 24.3857C24.9668 24.6832 24.818 24.9807 24.6693 25.1295C24.5205 25.2782 24.3717 25.5758 24.223 25.7245C23.9255 25.8733 23.7767 26.1708 23.9255 26.4683C24.5205 27.3609 25.2643 28.2535 26.0081 28.9973C26.9007 29.7411 27.7933 30.3361 28.8346 30.7824C29.1321 30.9312 29.4296 30.9312 29.5784 30.6336C29.7272 30.3361 30.471 29.5923 30.7685 29.2948C31.066 28.9973 31.2148 28.9973 31.5123 29.146L33.8925 30.3361C34.19 30.4849 34.4875 30.6336 34.6363 30.7824C34.785 31.2287 34.785 31.8237 34.4875 32.27V32.27Z" fill="#1F1F1F"/>
</svg>
