<svg width="55" height="55" viewBox="0 0 55 55" fill="none" xmlns="http://www.w3.org/2000/svg">
  <circle cx="27.7349" cy="27.2132" r="27.2124" fill="#FEFD00"/>
  <g clip-path="url(#clip0_248_323)">
    <path
      d="M27.8253 16.5978H27.9827C29.4367 16.6031 36.8038 16.6561 38.7901 17.1903C39.3906 17.3534 39.9378 17.6711 40.377 18.1119C40.8162 18.5527 41.1321 19.101 41.293 19.702C41.4716 20.3742 41.5972 21.2639 41.6821 22.1819L41.6998 22.3659L41.7387 22.8258L41.7529 23.0097C41.8679 24.6264 41.882 26.1405 41.8838 26.4713V26.6039C41.882 26.9471 41.8661 28.5638 41.7387 30.2477L41.7246 30.4334L41.7087 30.6174C41.6202 31.6291 41.4893 32.6338 41.293 33.3732C41.1326 33.9745 40.8169 34.523 40.3776 34.9639C39.9383 35.4047 39.3909 35.7223 38.7901 35.8849C36.7383 36.4367 28.9396 36.4757 27.8589 36.4774H27.6077C27.0612 36.4774 24.8006 36.4668 22.4304 36.3854L22.1297 36.3748L21.9758 36.3678L21.6734 36.3554L21.3709 36.343C19.4075 36.2563 17.5379 36.1166 16.6765 35.8831C16.0759 35.7207 15.5286 35.4034 15.0894 34.9629C14.6501 34.5224 14.3343 33.9741 14.1736 33.3732C13.9773 32.6356 13.8464 31.6291 13.7579 30.6174L13.7438 30.4316L13.7296 30.2477C13.6423 29.0491 13.594 27.8481 13.5846 26.6464L13.5846 26.4288C13.5881 26.0485 13.6023 24.7343 13.6978 23.2839L13.7102 23.1017L13.7155 23.0097L13.7296 22.8258L13.7686 22.3659L13.7862 22.1819C13.8711 21.2639 13.9967 20.3724 14.1754 19.702C14.3358 19.1007 14.6515 18.5522 15.0908 18.1113C15.53 17.6705 16.0775 17.3529 16.6782 17.1903C17.5397 16.9604 19.4093 16.8189 21.3727 16.7304L21.6734 16.7181L21.9776 16.7074L22.1297 16.7021L22.4322 16.6898C24.1156 16.6356 25.7996 16.6055 27.4839 16.5995H27.8253V16.5978ZM24.905 22.2757L24.905 30.7978L32.2579 26.5385L24.905 22.2757Z"
      fill="#1F1F1F"/>
  </g>
  <defs>
    <clipPath id="clip0_248_323">
      <rect width="28.3009" height="28.3009" fill="white" transform="translate(13.5842 13.0625)"/>
    </clipPath>
  </defs>
</svg>
